<svg width="80" height="79" viewBox="0 0 80 79" fill="none" xmlns="http://www.w3.org/2000/svg">
<mask id="path-1-inside-1_2214_228" fill="white">
<path d="M59.2327 54.0166C60.9866 55.3598 61.3373 57.8954 59.7587 59.4408C56.4853 62.6456 52.4618 65.0158 48.0278 66.3185C42.3082 67.9988 36.2024 67.8155 30.5939 65.7953C24.9854 63.7751 20.1652 60.0226 16.8309 55.081C13.4967 50.1394 11.8213 44.2651 12.0473 38.3081C12.2733 32.3511 14.3889 26.6206 18.088 21.9458C21.7871 17.271 26.8777 13.8946 32.6231 12.3051C38.3686 10.7156 44.4708 10.9955 50.0466 13.1043C54.3691 14.7392 58.2015 17.4074 61.2227 20.8509C62.6796 22.5116 62.1379 25.0133 60.2872 26.2197L44.8487 36.2845C42.5364 37.7919 42.4097 41.1328 44.6011 42.811L59.2327 54.0166Z"/>
</mask>
<path d="M59.2327 54.0166C60.9866 55.3598 61.3373 57.8954 59.7587 59.4408C56.4853 62.6456 52.4618 65.0158 48.0278 66.3185C42.3082 67.9988 36.2024 67.8155 30.5939 65.7953C24.9854 63.7751 20.1652 60.0226 16.8309 55.081C13.4967 50.1394 11.8213 44.2651 12.0473 38.3081C12.2733 32.3511 14.3889 26.6206 18.088 21.9458C21.7871 17.271 26.8777 13.8946 32.6231 12.3051C38.3686 10.7156 44.4708 10.9955 50.0466 13.1043C54.3691 14.7392 58.2015 17.4074 61.2227 20.8509C62.6796 22.5116 62.1379 25.0133 60.2872 26.2197L44.8487 36.2845C42.5364 37.7919 42.4097 41.1328 44.6011 42.811L59.2327 54.0166Z" stroke="#133249" stroke-width="4" mask="url(#path-1-inside-1_2214_228)"/>
</svg>
