<svg width="175" height="60" viewBox="0 0 175 60" fill="none" xmlns="http://www.w3.org/2000/svg">
<rect width="175" height="60" rx="30" fill="#0ECB78"/>
<path d="M31.776 26.56H28.064V24.8H37.568V26.56H33.856V36H31.776V26.56ZM46.457 36L44.169 32.72C44.073 32.7307 43.929 32.736 43.737 32.736H41.209V36H39.129V24.8H43.737C44.7077 24.8 45.5503 24.96 46.265 25.28C46.9903 25.6 47.545 26.0587 47.929 26.656C48.313 27.2533 48.505 27.9627 48.505 28.784C48.505 29.6267 48.297 30.352 47.881 30.96C47.4757 31.568 46.889 32.0213 46.121 32.32L48.697 36H46.457ZM46.409 28.784C46.409 28.0693 46.1743 27.52 45.705 27.136C45.2357 26.752 44.5477 26.56 43.641 26.56H41.209V31.024H43.641C44.5477 31.024 45.2357 30.832 45.705 30.448C46.1743 30.0533 46.409 29.4987 46.409 28.784ZM55.5079 32.048V36H53.4279V32.08L49.0279 24.8H51.2519L54.5319 30.256L57.8439 24.8H59.8919L55.5079 32.048ZM67.7559 26.544V29.952H73.1639V31.712H67.7559V36H65.6759V24.8H73.8519V26.544H67.7559ZM80.9704 36.16C79.829 36.16 78.7997 35.9147 77.8824 35.424C76.965 34.9227 76.245 34.2347 75.7224 33.36C75.1997 32.4747 74.9384 31.488 74.9384 30.4C74.9384 29.312 75.1997 28.3307 75.7224 27.456C76.245 26.5707 76.965 25.8827 77.8824 25.392C78.7997 24.8907 79.829 24.64 80.9704 24.64C82.1117 24.64 83.141 24.8907 84.0584 25.392C84.9757 25.8827 85.6957 26.5653 86.2184 27.44C86.741 28.3147 87.0024 29.3013 87.0024 30.4C87.0024 31.4987 86.741 32.4853 86.2184 33.36C85.6957 34.2347 84.9757 34.9227 84.0584 35.424C83.141 35.9147 82.1117 36.16 80.9704 36.16ZM80.9704 34.336C81.717 34.336 82.389 34.1707 82.9864 33.84C83.5837 33.4987 84.053 33.0293 84.3944 32.432C84.7357 31.824 84.9064 31.1467 84.9064 30.4C84.9064 29.6533 84.7357 28.9813 84.3944 28.384C84.053 27.776 83.5837 27.3067 82.9864 26.976C82.389 26.6347 81.717 26.464 80.9704 26.464C80.2237 26.464 79.5517 26.6347 78.9544 26.976C78.357 27.3067 77.8877 27.776 77.5464 28.384C77.205 28.9813 77.0344 29.6533 77.0344 30.4C77.0344 31.1467 77.205 31.824 77.5464 32.432C77.8877 33.0293 78.357 33.4987 78.9544 33.84C79.5517 34.1707 80.2237 34.336 80.9704 34.336ZM96.5351 36L94.2471 32.72C94.1511 32.7307 94.0071 32.736 93.8151 32.736H91.2871V36H89.2071V24.8H93.8151C94.7858 24.8 95.6285 24.96 96.3431 25.28C97.0685 25.6 97.6231 26.0587 98.0071 26.656C98.3911 27.2533 98.5831 27.9627 98.5831 28.784C98.5831 29.6267 98.3751 30.352 97.9591 30.96C97.5538 31.568 96.9671 32.0213 96.1991 32.32L98.7751 36H96.5351ZM96.4871 28.784C96.4871 28.0693 96.2525 27.52 95.7831 27.136C95.3138 26.752 94.6258 26.56 93.7191 26.56H91.2871V31.024H93.7191C94.6258 31.024 95.3138 30.832 95.7831 30.448C96.2525 30.0533 96.4871 29.4987 96.4871 28.784ZM107.412 26.544V29.952H112.82V31.712H107.412V36H105.332V24.8H113.508V26.544H107.412ZM122.848 36L120.56 32.72C120.464 32.7307 120.32 32.736 120.128 32.736H117.6V36H115.52V24.8H120.128C121.098 24.8 121.941 24.96 122.656 25.28C123.381 25.6 123.936 26.0587 124.32 26.656C124.704 27.2533 124.896 27.9627 124.896 28.784C124.896 29.6267 124.688 30.352 124.272 30.96C123.866 31.568 123.28 32.0213 122.512 32.32L125.088 36H122.848ZM122.8 28.784C122.8 28.0693 122.565 27.52 122.096 27.136C121.626 26.752 120.938 26.56 120.032 26.56H117.6V31.024H120.032C120.938 31.024 121.626 30.832 122.096 30.448C122.565 30.0533 122.8 29.4987 122.8 28.784ZM135.623 34.256V36H127.223V24.8H135.399V26.544H129.303V29.456H134.711V31.168H129.303V34.256H135.623ZM146.342 34.256V36H137.942V24.8H146.118V26.544H140.022V29.456H145.43V31.168H140.022V34.256H146.342Z" fill="white"/>
</svg>
