<svg width="70" height="70" viewBox="0 0 70 70" fill="none" xmlns="http://www.w3.org/2000/svg">
<path d="M17.5 26.3668C16.856 26.3668 16.3333 25.8442 16.3333 25.2002V20.9745C16.3333 20.6082 16.5037 20.2652 16.7953 20.0458C17.9853 19.1452 18.6667 17.7918 18.6667 16.3335V12.8335C18.6667 10.2598 16.5737 8.16683 14 8.16683C11.4263 8.16683 9.33333 10.2598 9.33333 12.8335V16.3335C9.33333 17.7918 10.0147 19.1452 11.2047 20.0458C11.4963 20.2652 11.6667 20.6105 11.6667 20.9768V25.2025C11.6667 25.8465 11.144 26.3692 10.5 26.3692C9.856 26.3692 9.33333 25.8442 9.33333 25.2002V21.5252C7.84233 20.1928 7 18.3308 7 16.3335V12.8335C7 8.97416 10.1407 5.8335 14 5.8335C17.8593 5.8335 21 8.97416 21 12.8335V16.3335C21 18.3308 20.1577 20.1905 18.6667 21.5252V25.2002C18.6667 25.8442 18.144 26.3668 17.5 26.3668V26.3668Z" fill="#133249"/>
<path d="M15.1735 23.2165C14.6321 23.2165 14.1468 22.8362 14.0325 22.2855C13.9041 21.6532 14.3101 21.0372 14.9425 20.9088C17.0985 20.4632 18.6665 18.5405 18.6665 16.3332C18.6665 15.6892 19.1891 15.1665 19.8331 15.1665C20.4771 15.1665 20.9998 15.6892 20.9998 16.3332C20.9998 19.6418 18.6478 22.5258 15.4091 23.1908C15.3298 23.2072 15.2528 23.2165 15.1735 23.2165V23.2165Z" fill="#133249"/>
<path d="M21.8728 28.1962C21.7188 28.1962 21.5625 28.1659 21.4131 28.1006L17.0405 26.2222C16.4478 25.9679 16.1748 25.2819 16.4291 24.6892C16.6811 24.0942 17.3671 23.8259 17.9598 24.0779L22.3325 25.9562C22.9251 26.2106 23.1981 26.8966 22.9438 27.4892C22.7548 27.9326 22.3231 28.1962 21.8728 28.1962V28.1962Z" fill="#133249"/>
<path d="M7 42.3195C6.839 42.3195 6.67333 42.2868 6.517 42.2145L2.051 40.1845C0.805 39.6152 0 38.3645 0 36.9972V33.7632C0 30.4918 1.93667 27.5518 4.93267 26.2732L10.0357 24.0588C10.633 23.8022 11.3143 24.0728 11.571 24.6632C11.8253 25.2535 11.5547 25.9418 10.9643 26.1985L5.85667 28.4152C3.71467 29.3322 2.33333 31.4298 2.33333 33.7632V36.9972C2.33333 37.4522 2.60167 37.8722 3.017 38.0612L7.483 40.0912C8.06867 40.3572 8.32767 41.0502 8.06167 41.6358C7.86567 42.0652 7.441 42.3195 7 42.3195V42.3195Z" fill="#133249"/>
<path d="M18.5243 14.9568C16.2003 14.9568 13.979 14.1565 12.1007 12.6422C11.6013 12.2385 11.522 11.5058 11.9233 11.0042C12.3317 10.5025 13.0667 10.4255 13.5637 10.8292C15.0617 12.0355 16.8397 12.6865 18.662 12.6235C18.55 10.1455 16.5013 8.16683 14 8.16683C11.4263 8.16683 9.33333 10.2598 9.33333 12.8335V13.6968C9.33333 14.3408 8.81067 14.8635 8.16667 14.8635C7.52267 14.8635 7 14.3432 7 13.6968V12.8335C7 8.97416 10.1407 5.8335 14 5.8335C17.8593 5.8335 21 8.97416 21 12.8335V13.6502C21 14.2242 20.5823 14.7118 20.0177 14.8028C19.4787 14.8892 19.012 14.9568 18.5243 14.9568V14.9568Z" fill="#133249"/>
<path d="M59.5 26.3669C58.856 26.3669 58.3333 25.8443 58.3333 25.2003V20.9746C58.3333 20.6083 58.5037 20.2653 58.7953 20.0459C59.9853 19.1453 60.6667 17.7919 60.6667 16.3336V12.8336C60.6667 10.2599 58.5737 8.16694 56 8.16694C53.4263 8.16694 51.3333 10.2599 51.3333 12.8336V16.3336C51.3333 17.7919 52.0147 19.1453 53.2047 20.0459C53.4963 20.2653 53.6667 20.6106 53.6667 20.9769V25.2026C53.6667 25.8466 53.144 26.3693 52.5 26.3693C51.856 26.3693 51.3333 25.8466 51.3333 25.2026V21.5276C49.8423 20.1953 49 18.3333 49 16.3359V12.8359C49 8.9766 52.1407 5.83594 56 5.83594C59.8593 5.83594 63 8.9766 63 12.8359V16.3359C63 18.3333 62.1577 20.1929 60.6667 21.5276V25.2026C60.6667 25.8443 60.144 26.3669 59.5 26.3669V26.3669Z" fill="#133249"/>
<path d="M57.1735 23.2165C56.6321 23.2165 56.1468 22.8362 56.0325 22.2855C55.9041 21.6532 56.3101 21.0372 56.9425 20.9088C59.0985 20.4632 60.6665 18.5405 60.6665 16.3332C60.6665 15.6892 61.1891 15.1665 61.8331 15.1665C62.4771 15.1665 62.9998 15.6892 62.9998 16.3332C62.9998 19.6418 60.6478 22.5258 57.4091 23.1908C57.3298 23.2072 57.2528 23.2165 57.1735 23.2165V23.2165Z" fill="#133249"/>
<path d="M48.4699 28.0492C48.0195 28.0492 47.5879 27.7855 47.3989 27.3422C47.1445 26.7519 47.4175 26.0635 48.0102 25.8092L52.0399 24.0779C52.6279 23.8282 53.3162 24.0942 53.5705 24.6892C53.8249 25.2795 53.5519 25.9679 52.9592 26.2222L48.9295 27.9535C48.7802 28.0189 48.6262 28.0492 48.4699 28.0492Z" fill="#133249"/>
<path d="M62.9996 42.3199C62.5586 42.3199 62.1339 42.0655 61.9379 41.6362C61.6719 41.0505 61.9309 40.3575 62.5166 40.0915L66.9826 38.0615C67.3979 37.8725 67.6662 37.4549 67.6662 36.9975V33.7635C67.6662 31.4302 66.2849 29.3325 64.1499 28.4202L59.0352 26.1989C58.4449 25.9422 58.1742 25.2562 58.4286 24.6635C58.6852 24.0709 59.3619 23.8002 59.9639 24.0592L65.0716 26.2759C68.0629 27.5522 69.9996 30.4922 69.9996 33.7635V36.9975C69.9996 38.3649 69.1946 39.6155 67.9486 40.1849L63.4826 42.2149C63.3262 42.2849 63.1606 42.3199 62.9996 42.3199V42.3199Z" fill="#133249"/>
<path d="M38.0566 11.4707C34.7386 11.4707 31.2853 10.3017 29.3813 8.58905C28.9006 8.15738 28.861 7.42005 29.2926 6.94172C29.7243 6.46338 30.4686 6.42371 30.94 6.85538C33.2406 8.92271 38.752 10.003 41.909 8.30905C42.476 8.00338 43.1853 8.21572 43.4886 8.78505C43.7943 9.35438 43.5796 10.059 43.0126 10.3647C41.573 11.1324 39.8346 11.4707 38.0566 11.4707Z" fill="#133249"/>
<path d="M34.984 32.6666C31.113 32.6666 29.0946 29.6472 28.5673 28.0489C28.3643 27.4352 28.698 26.7772 29.3093 26.5742C29.9206 26.3736 30.5763 26.7049 30.7793 27.3116C30.8283 27.4516 31.862 30.3309 34.984 30.3309C38.1316 30.3309 39.24 27.3629 39.289 27.2369C39.506 26.6326 40.1826 26.3176 40.7776 26.5322C41.382 26.7469 41.7016 27.4072 41.4893 28.0139C41.4216 28.2052 39.8093 32.6666 34.984 32.6666V32.6666Z" fill="#133249"/>
<path d="M57.1667 41.9998C56.5227 41.9998 56 41.4771 56 40.8331V40.1821C56 36.7218 53.8183 33.6278 50.5727 32.4868L40.8403 29.0335C39.4403 28.5458 38.5 27.2205 38.5 25.7388V22.8688C38.5 22.2248 39.0227 21.7021 39.6667 21.7021C40.3107 21.7021 40.8333 22.2248 40.8333 22.8688V25.7388C40.8333 26.2288 41.1483 26.6675 41.615 26.8308L51.3497 30.2865C55.5263 31.7541 58.3333 35.7325 58.3333 40.1821V40.8355C58.3333 41.4795 57.8107 41.9998 57.1667 41.9998Z" fill="#133249"/>
<path d="M12.8337 42.0002C12.1897 42.0002 11.667 41.4775 11.667 40.8335V40.2035C11.667 39.4755 11.744 38.7452 11.8957 38.0242C12.647 34.4705 15.2463 31.5072 18.6717 30.2845L28.383 26.8779C28.852 26.7145 29.167 26.2735 29.167 25.7835V22.8669C29.167 22.2229 29.6897 21.7002 30.3337 21.7002C30.9777 21.7002 31.5003 22.2229 31.5003 22.8669V25.7835C31.5003 27.2629 30.56 28.5882 29.1553 29.0805L19.451 32.4849C16.784 33.4345 14.7633 35.7422 14.1777 38.5072C14.0587 39.0672 14.0003 39.6389 14.0003 40.2035V40.8335C14.0003 41.4799 13.4777 42.0002 12.8337 42.0002V42.0002Z" fill="#133249"/>
<path d="M35.0003 25.6667C34.3563 25.6667 33.8337 25.144 33.8337 24.5C33.8337 23.856 34.3563 23.3333 35.0003 23.3333C37.4223 23.3333 42.0003 21.14 42.0003 12.8333V9.33333C42.0003 5.474 38.8597 2.33333 35.0003 2.33333C31.141 2.33333 28.0003 5.474 28.0003 9.33333V12.8333C28.0003 16.856 29.076 19.9337 31.1083 21.7327C31.5913 22.1597 31.638 22.897 31.2087 23.38C30.777 23.8653 30.042 23.905 29.5637 23.4803C27.7857 21.9077 25.667 18.7857 25.667 12.8333V9.33333C25.667 4.186 29.853 0 35.0003 0C40.1477 0 44.3337 4.186 44.3337 9.33333V12.8333C44.3337 22.9857 38.2297 25.6667 35.0003 25.6667Z" fill="#133249"/>
<path d="M52.7755 63.0004C52.3462 63.0004 51.9355 62.7624 51.7302 62.3517C51.4455 61.773 51.6812 61.0754 52.2598 60.7884L58.0302 57.93C58.3545 57.769 58.7418 57.769 59.0638 57.93L62.8345 59.799L62.2208 55.6364C62.1695 55.277 62.2862 54.9107 62.5428 54.6517L65.4898 51.6394L61.3365 50.9324C60.9795 50.8717 60.6692 50.6454 60.4988 50.3234L58.5482 46.5947L56.5952 50.3234C56.4248 50.6454 56.1145 50.8717 55.7575 50.9324L51.6065 51.6394L54.5512 54.6517C55.0015 55.1137 54.9922 55.851 54.5325 56.3014C54.0705 56.754 53.3308 56.7447 52.8828 56.2827L48.3818 51.679C48.0785 51.3687 47.9712 50.916 48.1065 50.503C48.2418 50.09 48.5918 49.7867 49.0212 49.7144L54.7985 48.7297L57.5168 43.5404C57.7198 43.1554 58.1188 42.915 58.5505 42.915C58.9868 42.915 59.3812 43.1577 59.5842 43.5404L62.3002 48.7297L68.0798 49.7144C68.5092 49.7867 68.8592 50.0924 68.9945 50.503C69.1298 50.9137 69.0225 51.3687 68.7192 51.679L64.6195 55.8674L65.4735 61.6634C65.5342 62.0927 65.3545 62.522 65.0045 62.7764C64.6545 63.033 64.1878 63.0727 63.8005 62.8767L58.5505 60.275L53.2982 62.8767C53.1278 62.963 52.9505 63.0004 52.7755 63.0004V63.0004Z" fill="#133249"/>
<path d="M28.1776 69.3496C27.935 69.3496 27.6946 69.2749 27.4916 69.1279C27.1416 68.8736 26.9596 68.4442 27.0226 68.0126L28.0446 61.0522L23.126 56.0216C22.8226 55.7112 22.7153 55.2586 22.8506 54.8456C22.986 54.4326 23.336 54.1269 23.7653 54.0569L30.7046 52.8762L33.9666 46.6439C34.3726 45.8739 35.6303 45.8739 36.0363 46.6439L39.2983 52.8762L46.2376 54.0569C46.667 54.1292 47.017 54.4349 47.1523 54.8456C47.2876 55.2562 47.1803 55.7112 46.877 56.0216L41.956 61.0522L42.9803 68.0126C43.041 68.4419 42.8613 68.8712 42.5113 69.1256C42.1613 69.3846 41.6946 69.4196 41.3073 69.2259L35.0003 66.1016L28.6956 69.2259C28.5323 69.3076 28.355 69.3496 28.1776 69.3496V69.3496ZM26.3506 55.9819L30.1166 59.8342C30.371 60.0956 30.49 60.4596 30.4386 60.8189L29.6546 66.1459L34.4823 63.7542C34.8066 63.5909 35.194 63.5909 35.516 63.7542L40.3413 66.1459L39.5573 60.8189C39.506 60.4596 39.6226 60.0932 39.8793 59.8342L43.6476 55.9819L38.3346 55.0766C37.9776 55.0159 37.6673 54.7896 37.497 54.4676L35.0003 49.6959L32.5036 54.4676C32.3333 54.7896 32.023 55.0159 31.666 55.0766L26.3506 55.9819Z" fill="#133249"/>
<path d="M17.4136 63.0005C17.2386 63.0005 17.0636 62.9608 16.8956 62.8791L11.6456 60.2775L6.39326 62.8815C6.00826 63.0728 5.54393 63.0355 5.18926 62.7788C4.83926 62.5245 4.65726 62.0951 4.72026 61.6658L5.57426 55.8698L1.4746 51.6815C1.17126 51.3711 1.06393 50.9185 1.19926 50.5055C1.3346 50.0925 1.6846 49.7868 2.11393 49.7168L7.8936 48.7321L10.6119 43.5428C10.8149 43.1578 11.2139 42.9175 11.6456 42.9175C12.0819 42.9175 12.4763 43.1601 12.6793 43.5428L15.3953 48.7321L21.1726 49.7168C21.6019 49.7891 21.9519 50.0948 22.0873 50.5055C22.2226 50.9161 22.1153 51.3711 21.8119 51.6815L17.3109 56.2828C16.8653 56.7448 16.1256 56.7541 15.6613 56.3015C15.2016 55.8511 15.1923 55.1138 15.6426 54.6518L18.5873 51.6395L14.4363 50.9325C14.0769 50.8718 13.7689 50.6455 13.5986 50.3235L11.6479 46.5948L9.69493 50.3235C9.5246 50.6455 9.21426 50.8718 8.85726 50.9325L4.70393 51.6395L7.65093 54.6518C7.90526 54.9131 8.02426 55.2771 7.97293 55.6365L7.35926 59.7991L11.1323 57.9301C11.4566 57.7691 11.8439 57.7691 12.1659 57.9301L17.9339 60.7885C18.5126 61.0755 18.7483 61.7731 18.4636 62.3518C18.2536 62.7625 17.8406 63.0005 17.4136 63.0005V63.0005Z" fill="#133249"/>
</svg>
