<svg width="70" height="74" viewBox="0 0 70 74" fill="none" xmlns="http://www.w3.org/2000/svg">
<path d="M11.1524 28.3207C9.12965 28.3207 6.79626 27.8873 4.75985 26.3959C1.30578 23.8648 -0.281579 19.0459 0.0408534 12.0738C0.0682666 11.4909 0.530376 11.0223 1.11323 10.9877C1.60667 10.9596 13.286 10.3363 17.2159 16.2354C19.0461 18.9813 18.8959 22.5776 16.7714 26.9266C16.6422 27.1909 16.4164 27.3952 16.1403 27.4964C15.9869 27.5531 13.8454 28.3207 11.1524 28.3207ZM15.7467 26.4259H15.7578H15.7467ZM2.28613 13.2323C2.18757 18.8168 3.47143 22.6233 6.10767 24.5553C9.26411 26.8678 13.5739 25.8848 14.9289 25.49C16.479 22.126 16.6102 19.4401 15.3179 17.5003C12.9159 13.8948 5.87204 13.1899 2.28613 13.2323V13.2323Z" fill="#133249"/>
<path d="M24.6273 39.277C24.5914 39.277 24.5555 39.275 24.519 39.2718C23.9113 39.2143 23.4564 38.6889 23.4871 38.0786C23.5543 36.7367 23.6692 35.4639 23.8252 34.2578C24.2997 26.1852 24.0549 7.38625 12.1693 2.18556C11.5923 1.93297 11.3287 1.26069 11.5812 0.683056C11.8332 0.106725 12.5074 -0.156312 13.0838 0.0956291C20.0878 3.16004 24.4942 10.7894 25.8237 22.1587C25.9432 23.1776 26.0326 24.1821 26.0992 25.1605C29.2295 17.2505 34.0183 14.4556 34.3036 14.2957C34.8518 13.9857 35.5476 14.1828 35.857 14.7304C36.1644 15.2787 35.9712 15.9725 35.4249 16.2818C35.3042 16.3523 27.9607 20.7593 26.1175 34.3498C25.9771 36.6747 25.7748 38.157 25.7559 38.2927C25.6769 38.8619 25.1906 39.277 24.6273 39.277Z" fill="#133249"/>
<path d="M36.1677 28.1268C34.4132 28.1268 32.446 27.585 30.2804 26.5022C30.018 26.3704 29.8156 26.1419 29.7164 25.8658C29.6283 25.6184 27.5899 19.7553 30.8293 15.4194C33.1836 12.2675 37.6101 10.8479 43.9935 11.2036C44.5757 11.2356 45.0398 11.7023 45.0685 12.2858C45.0913 12.7388 45.5619 23.4306 40.11 26.9904C38.9508 27.7482 37.6336 28.1268 36.1677 28.1268V28.1268ZM31.7352 24.6714C34.7317 26.0766 37.1271 26.2144 38.8633 25.0806C42.0961 22.9692 42.7952 16.7013 42.8121 13.4391C37.8105 13.3171 34.4054 14.4443 32.6568 16.7842C30.576 19.5706 31.3847 23.4032 31.7352 24.6714Z" fill="#133249"/>
<path d="M34.7665 73.5045C32.3281 73.5045 29.8909 73.013 27.6339 72.0314L16.8415 67.3398C12.9371 65.6415 8.80879 64.5658 4.57149 64.1422L1.02734 63.7878C0.443834 63.7297 0 63.2389 0 62.6528V51.5354C0 51.2887 0.0802817 51.0485 0.228444 50.8514C0.493438 50.497 6.84548 42.1986 16.5485 44.3577C22.0057 45.5704 26.3996 47.8398 29.1246 49.5303C31.1029 50.7574 33.422 51.4055 35.8311 51.4055H46.6234C48.4836 51.4055 50.1186 52.3898 51.033 53.8662L60.3281 43.1574C62.1302 40.7509 65.0784 39.2771 68.165 39.2771H68.8595C69.2452 39.2771 69.6042 39.4716 69.8144 39.794C70.0252 40.1165 70.0585 40.5244 69.9038 40.8769L61.4971 59.9826C59.6591 64.1612 55.9165 67.3176 51.4867 68.4252L50.0076 68.7946L41.4038 72.2363C39.2864 73.0829 37.0262 73.5045 34.7665 73.5045V73.5045ZM2.28183 61.6202L4.79862 61.8721C9.27155 62.3192 13.6296 63.4556 17.752 65.2479L28.5437 69.9395C32.3385 71.5895 36.7148 71.6541 40.5572 70.117L49.2316 66.6473C49.2799 66.6283 49.3288 66.6127 49.3791 66.6003L50.9332 66.2113C54.6842 65.2733 57.8531 62.6012 59.4084 59.0636L67.0763 41.6373C65.113 41.9264 63.3063 42.9844 62.1028 44.5887L51.8058 56.4561C51.8071 56.5005 51.8078 56.5442 51.8078 56.5892C51.8078 59.4474 49.4822 61.7729 46.6241 61.7729H31.5664C29.6089 61.7729 27.6743 62.0869 25.8174 62.7056L25.3984 61.6417L25.044 60.5576L25.1021 60.5387C27.1861 59.8442 29.3629 59.4911 31.5664 59.4911H46.6241C48.2238 59.4911 49.5266 58.189 49.5266 56.5886C49.5266 54.9882 48.2245 53.686 46.6241 53.686H35.8317C32.9971 53.686 30.2623 52.9191 27.923 51.4682C25.3488 49.871 21.1989 47.7282 16.055 46.584C8.70697 44.9543 3.41948 50.5936 2.28248 51.9388V61.6202H2.28183Z" fill="#133249"/>
</svg>
