<svg width="70" height="71" viewBox="0 0 70 71" fill="none" xmlns="http://www.w3.org/2000/svg">
<path d="M34.9996 35.7852C29.6418 35.7852 25.2822 40.1442 25.2822 45.5025C25.2822 50.8608 29.6418 55.2198 34.9996 55.2198C40.3578 55.2198 44.7174 50.8608 44.7174 45.5025C44.7174 40.1442 40.3578 35.7852 34.9996 35.7852V35.7852ZM34.9996 53.1684C30.7726 53.1684 27.3336 49.7294 27.3336 45.5025C27.3336 41.2756 30.7726 37.8366 34.9996 37.8366C39.227 37.8366 42.666 41.2756 42.666 45.5025C42.666 49.7294 39.227 53.1684 34.9996 53.1684Z" fill="#133249"/>
<path d="M23.1582 19.2416C23.1582 20.1842 23.9253 20.9512 24.8678 20.9512H61.3894C62.3319 20.9512 63.099 20.1842 63.099 19.2416V15.6427C63.099 14.7002 62.3324 13.9331 61.3894 13.9331H40.9496C40.3831 13.9331 39.9236 14.3926 39.9236 14.9591C39.9236 15.5256 40.3831 15.9845 40.9496 15.9845H61.0476V18.8998H25.2096V15.9845H36.1626C36.7291 15.9845 37.1886 15.5256 37.1886 14.9591C37.1886 14.3926 36.7291 13.9331 36.1626 13.9331H24.8678C23.9253 13.9331 23.1582 14.7002 23.1582 15.6427V19.2416Z" fill="#133249"/>
<path d="M49.7239 11.3178C50.2903 11.3178 50.7493 10.8583 50.7493 10.2918C50.7493 9.72532 50.2903 9.26636 49.7239 9.26636H24.1842C23.6177 9.26636 23.1582 9.72532 23.1582 10.2918C23.1582 10.8583 23.6177 11.3178 24.1842 11.3178H49.7239Z" fill="#133249"/>
<path d="M24.1842 25.3312H62.0735C62.64 25.3312 63.099 24.8717 63.099 24.3052C63.099 23.7387 62.64 23.2798 62.0735 23.2798H24.1842C23.6177 23.2798 23.1582 23.7387 23.1582 24.3052C23.1582 24.8717 23.6177 25.3312 24.1842 25.3312Z" fill="#133249"/>
<path d="M62.0735 11.3178C62.6399 11.3178 63.0989 10.8583 63.0989 10.2918C63.0989 9.72532 62.6399 9.26636 62.0735 9.26636H54.6627C54.0962 9.26636 53.6367 9.72532 53.6367 10.2918C53.6367 10.8583 54.0962 11.3178 54.6627 11.3178H62.0735Z" fill="#133249"/>
<path d="M9.61778 20.9318C8.97802 20.9318 8.46289 21.7979 8.46289 22.375C8.46289 23.5299 10.3394 24.8704 12.8342 24.9325V25.5097C12.8342 25.7777 13.144 26.0253 13.5355 26.0253C13.8864 26.0253 14.2368 25.7777 14.2368 25.5097V24.8704C16.546 24.4992 18.1342 23.0351 18.1342 20.4985C18.1342 17.694 16.0721 16.7659 14.2368 16.0855V12.456C15.6185 12.5593 16.0924 13.2194 16.6701 13.2194C17.4329 13.2194 17.763 12.2704 17.763 11.7965C17.763 10.5999 15.5773 10.2083 14.2368 10.1671V9.63114C14.2368 9.36315 13.8864 9.11548 13.5355 9.11548C13.144 9.11548 12.8348 9.36261 12.8348 9.63114V10.2083C10.7727 10.4763 8.83412 11.6103 8.83412 14.2298C8.83412 16.8691 10.9583 17.6736 12.8348 18.3744V22.4783C11.0198 22.2718 10.4009 20.9318 9.61778 20.9318ZM14.0715 18.8692C14.9584 19.2613 15.6185 19.7561 15.6185 20.7665C15.6185 21.7358 14.9787 22.2718 14.0715 22.4574V18.8692ZM11.3498 13.9613C11.3498 13.1777 11.9682 12.6829 12.9995 12.5181V15.6319C12.0506 15.2606 11.3498 14.8685 11.3498 13.9613Z" fill="#0ECB78"/>
<path d="M64.6802 0H5.31977C2.38627 0 0 2.38627 0 5.31977V37.3475C0 37.914 0.45896 38.3735 1.02597 38.3735C1.59245 38.3735 2.05141 37.914 2.05141 37.3475V5.31977C2.05141 3.51763 3.51763 2.05141 5.31977 2.05141H64.6802C66.4824 2.05141 67.9486 3.51763 67.9486 5.31977V47.1568C67.9486 48.959 66.4824 50.4252 64.6802 50.4252H47.6853C47.6955 50.1369 47.7238 49.8742 47.7939 49.6592C47.9137 49.2896 48.2443 48.8573 48.5947 48.3994C49.2131 47.5912 49.9138 46.6743 49.9138 45.5023C49.9138 44.3303 49.2131 43.4135 48.5947 42.6052C48.2443 42.1473 47.9137 41.7146 47.7939 41.3455C47.6629 40.9437 47.6746 40.3789 47.6864 39.7803C47.7067 38.7805 47.7297 37.647 47.0659 36.735C46.3956 35.8139 45.3049 35.486 44.3426 35.196C43.7751 35.0254 43.2386 34.8639 42.9053 34.6215C42.5801 34.3846 42.2655 33.9294 41.9323 33.4469C41.3578 32.6145 40.7062 31.6709 39.6091 31.3147C38.5527 30.9718 37.4914 31.3404 36.5553 31.6656C35.9808 31.8651 35.4384 32.0534 34.9997 32.0534C34.5616 32.0534 34.0187 31.8651 33.4442 31.6656C32.5081 31.3404 31.4473 30.9718 30.3903 31.3147C29.2932 31.6709 28.6422 32.6145 28.0672 33.4469C27.7339 33.9288 27.4194 34.3846 27.0942 34.621C26.7609 34.8639 26.2249 35.0254 25.6568 35.196C24.6945 35.486 23.6044 35.8139 22.9341 36.7345C22.2703 37.647 22.2927 38.78 22.3131 39.7803C22.3248 40.3783 22.3366 40.9432 22.2061 41.3455C22.0857 41.7146 21.7551 42.1473 21.4053 42.6047C20.7869 43.4135 20.0857 44.3303 20.0857 45.5023C20.0857 46.6743 20.7864 47.5906 21.4053 48.3994C21.7551 48.8573 22.0857 49.2896 22.2061 49.6592C22.2756 49.8742 22.3045 50.1363 22.3147 50.4252H5.31977C3.51763 50.4252 2.05141 48.959 2.05141 47.1568V42.1409C2.05141 41.5744 1.59245 41.1155 1.02597 41.1155C0.45896 41.1155 0 41.5744 0 42.1409V47.1568C0 50.0898 2.38627 52.4766 5.31977 52.4766H22.3334C22.3874 53.103 22.5383 53.7256 22.9341 54.2702C23.6044 55.1908 24.6951 55.5187 25.6568 55.8086C26.2249 55.9792 26.7614 56.1408 27.0942 56.3831C27.4194 56.6201 27.7345 57.0758 28.0672 57.5578C28.2405 57.8087 28.4208 58.0692 28.6182 58.3211V68.2519C28.6182 68.8654 28.9198 69.4389 29.4259 69.786C29.9314 70.1332 30.5754 70.2092 31.1478 69.9888L34.9997 68.5044L38.8522 69.9882C39.0689 70.0717 39.2957 70.1129 39.5209 70.1129C39.8921 70.1129 40.2596 70.0021 40.5741 69.786C41.0802 69.4389 41.3818 68.8654 41.3818 68.2519V58.3211C41.5792 58.0692 41.7595 57.8087 41.9328 57.5578C42.2655 57.0753 42.5801 56.6201 42.9053 56.3831C43.2386 56.1408 43.7751 55.9792 44.3426 55.8086C45.3049 55.5187 46.3956 55.1908 47.0659 54.2702C47.4617 53.7256 47.6126 53.103 47.6661 52.4766H64.6802C67.6132 52.4766 70 50.0903 70 47.1568V5.31977C70 2.38627 67.6132 0 64.6802 0V0ZM39.3304 67.9743L35.6689 66.5631C35.4533 66.4802 35.2265 66.439 34.9997 66.439C34.7735 66.439 34.5467 66.4802 34.3311 66.5631L30.6696 67.9743V59.7622C30.876 59.8061 31.0825 59.8269 31.2879 59.8269C32.0395 59.8269 32.7739 59.5718 33.4447 59.3391C34.0192 59.1395 34.5616 58.9507 34.9997 58.9507C35.4384 58.9507 35.9808 59.1395 36.5553 59.3391C37.409 59.6354 38.367 59.9665 39.3304 59.7622V67.9743ZM46.9648 47.1536C46.5256 47.7281 46.0709 48.3224 45.8425 49.0258C45.6056 49.7565 45.6205 50.5236 45.6355 51.2655C45.65 51.9754 45.6649 52.7088 45.4071 53.0629C45.1434 53.4255 44.4357 53.6384 43.7515 53.8438C43.0444 54.0567 42.3137 54.2771 41.698 54.7249C41.0903 55.1667 40.6608 55.7893 40.2446 56.3922C39.8354 56.9844 39.4128 57.5968 38.9758 57.7386C38.5746 57.8686 37.8899 57.6311 37.2282 57.4011C36.5184 57.1545 35.7839 56.8998 34.9997 56.8998C34.2155 56.8998 33.4811 57.1545 32.7713 57.4011C32.1096 57.6311 31.4254 57.8691 31.0242 57.7386C30.5872 57.5968 30.1641 56.9844 29.7554 56.3922C29.3392 55.7899 28.9091 55.1667 28.3015 54.7249C27.6863 54.2766 26.9551 54.0567 26.2479 53.8438C25.5643 53.6384 24.8566 53.4255 24.5929 53.0629C24.3351 52.7088 24.35 51.9748 24.3639 51.2655C24.3789 50.5236 24.3944 49.7565 24.1569 49.0258C23.9285 48.323 23.4744 47.7281 23.0347 47.1536C22.5934 46.5764 22.1371 45.98 22.1371 45.5023C22.1371 45.0246 22.5934 44.4282 23.0347 43.851C23.4744 43.2765 23.9285 42.6822 24.1569 41.9788C24.3944 41.2481 24.3789 40.481 24.3639 39.7391C24.35 39.0298 24.3351 38.2959 24.5929 37.9418C24.8566 37.5796 25.5638 37.3662 26.2479 37.1608C26.9551 36.9479 27.6863 36.7275 28.3015 36.2803C28.9091 35.8379 29.3392 35.2148 29.7554 34.613C30.1641 34.0203 30.5872 33.4083 31.0242 33.2661C31.1028 33.2404 31.1927 33.2292 31.2911 33.2292C31.6934 33.2292 32.2396 33.419 32.7713 33.6036C33.4811 33.8502 34.2155 34.1053 34.9997 34.1053C35.7839 34.1053 36.5184 33.8502 37.2282 33.6036C37.8899 33.3736 38.5746 33.1361 38.9758 33.2661C39.4123 33.4078 39.8354 34.0203 40.2446 34.6125C40.6602 35.2148 41.0903 35.8379 41.698 36.2803C42.3137 36.7275 43.0444 36.9479 43.7515 37.1608C44.4357 37.3662 45.1434 37.5796 45.4071 37.9418C45.6644 38.2959 45.65 39.0298 45.6355 39.7391C45.6205 40.481 45.6056 41.2481 45.8425 41.9788C46.0709 42.6822 46.5256 43.2765 46.9648 43.851C47.4061 44.4282 47.8624 45.0246 47.8624 45.5023C47.8624 45.98 47.4061 46.5764 46.9648 47.1536V47.1536Z" fill="#133249"/>
<path d="M7.07812 34.5665C7.07812 35.133 7.53709 35.5919 8.10356 35.5919H20.2542C20.8207 35.5919 21.2802 35.133 21.2802 34.5665C21.2802 34 20.8207 33.5405 20.2542 33.5405H8.10356C7.53709 33.5405 7.07812 34 7.07812 34.5665V34.5665Z" fill="#133249"/>
<path d="M8.10356 39.9232H17.9498C18.5163 39.9232 18.9753 39.4637 18.9753 38.8978C18.9753 38.3308 18.5163 37.8718 17.9498 37.8718H8.10356C7.53709 37.8718 7.07812 38.3313 7.07812 38.8978C7.07812 39.4643 7.53709 39.9232 8.10356 39.9232Z" fill="#133249"/>
<path d="M8.10356 44.254H16.3087C16.8752 44.254 17.3347 43.7946 17.3347 43.2286C17.3347 42.6616 16.8752 42.2026 16.3087 42.2026H8.10356C7.53709 42.2026 7.07812 42.6621 7.07812 43.2286C7.07812 43.7951 7.53709 44.254 8.10356 44.254Z" fill="#133249"/>
<path d="M61.8964 33.5405H49.7452C49.1787 33.5405 48.7197 34 48.7197 34.5665C48.7197 35.133 49.1787 35.5919 49.7452 35.5919H61.8964C62.4629 35.5919 62.9218 35.133 62.9218 34.5665C62.9218 34 62.4629 33.5405 61.8964 33.5405V33.5405Z" fill="#133249"/>
<path d="M61.8957 37.8718H52.0494C51.4829 37.8718 51.0234 38.3313 51.0234 38.8978C51.0234 39.4643 51.4829 39.9232 52.0494 39.9232H61.8957C62.4621 39.9232 62.9211 39.4637 62.9211 38.8978C62.9211 38.3313 62.4621 37.8718 61.8957 37.8718V37.8718Z" fill="#133249"/>
<path d="M61.8952 42.2026H53.69C53.123 42.2026 52.6641 42.6621 52.6641 43.2286C52.6641 43.7951 53.123 44.254 53.69 44.254H61.8952C62.4616 44.254 62.9206 43.7946 62.9206 43.2286C62.9206 42.6616 62.4616 42.2026 61.8952 42.2026V42.2026Z" fill="#133249"/>
</svg>
