<svg width="70" height="70" viewBox="0 0 70 70" fill="none" xmlns="http://www.w3.org/2000/svg">
<path d="M68.8333 3.5H56.2753L49.5215 0.122501C49.3595 0.0417705 49.181 -0.000168346 49 5.07862e-07H35C34.6906 5.07862e-07 34.3938 0.122917 34.175 0.341709C33.9563 0.560502 33.8333 0.857248 33.8333 1.16667V6.048C33.0549 6.32321 32.3989 6.86475 31.9811 7.57689C31.5633 8.28904 31.4108 9.12594 31.5504 9.93969C31.69 10.7534 32.1128 11.4916 32.7441 12.0238C33.3753 12.556 34.1744 12.8478 35 12.8478C35.8256 12.8478 36.6247 12.556 37.2559 12.0238C37.8872 11.4916 38.31 10.7534 38.4496 9.93969C38.5892 9.12594 38.4367 8.28904 38.0189 7.57689C37.6012 6.86475 36.9451 6.32321 36.1667 6.048V2.33333H48.7247L55.4785 5.71667C55.641 5.79538 55.8195 5.83532 56 5.83333H68.8333C69.1428 5.83333 69.4395 5.71042 69.6583 5.49162C69.8771 5.27283 70 4.97609 70 4.66667C70 4.35725 69.8771 4.0605 69.6583 3.84171C69.4395 3.62292 69.1428 3.5 68.8333 3.5ZM35 10.5C34.7693 10.5 34.5437 10.4316 34.3518 10.3034C34.16 10.1752 34.0104 9.99298 33.9221 9.7798C33.8338 9.56662 33.8107 9.33204 33.8558 9.10573C33.9008 8.87942 34.0119 8.67154 34.175 8.50838C34.3382 8.34521 34.5461 8.2341 34.7724 8.18908C34.9987 8.14407 35.2333 8.16717 35.4465 8.25547C35.6596 8.34378 35.8419 8.49331 35.9701 8.68517C36.0982 8.87702 36.1667 9.10259 36.1667 9.33333C36.1667 9.64275 36.0438 9.9395 35.825 10.1583C35.6062 10.3771 35.3094 10.5 35 10.5Z" fill="#133249"/>
<path d="M68.8335 65.3332H66.1502L61.7635 53.2675C61.6816 53.0425 61.5324 52.8481 61.3362 52.7107C61.14 52.5734 60.9063 52.4998 60.6668 52.4998H56.9522C56.677 51.7214 56.1354 51.0654 55.4233 50.6476C54.7111 50.2299 53.8742 50.0773 53.0605 50.2169C52.2467 50.3565 51.5086 50.7793 50.9764 51.4106C50.4442 52.0418 50.1523 52.8409 50.1523 53.6665C50.1523 54.4921 50.4442 55.2912 50.9764 55.9224C51.5086 56.5537 52.2467 56.9765 53.0605 57.1161C53.8742 57.2557 54.7111 57.1032 55.4233 56.6854C56.1354 56.2677 56.677 55.6116 56.9522 54.8332H59.8502L64.2368 66.8988C64.3187 67.1239 64.4679 67.3183 64.6641 67.4556C64.8603 67.593 65.094 67.6666 65.3335 67.6665H68.8335C69.1429 67.6665 69.4397 67.5436 69.6585 67.3248C69.8773 67.106 70.0002 66.8093 70.0002 66.4998C70.0002 66.1904 69.8773 65.8937 69.6585 65.6749C69.4397 65.4561 69.1429 65.3332 68.8335 65.3332ZM53.6668 54.8332C53.4361 54.8332 53.2105 54.7648 53.0187 54.6366C52.8268 54.5084 52.6773 54.3262 52.589 54.113C52.5007 53.8998 52.4776 53.6652 52.5226 53.4389C52.5676 53.2126 52.6787 53.0047 52.8419 52.8416C53.005 52.6784 53.2129 52.5673 53.4392 52.5223C53.6655 52.4772 53.9001 52.5004 54.1133 52.5887C54.3265 52.677 54.5087 52.8265 54.6369 53.0183C54.7651 53.2102 54.8335 53.4358 54.8335 53.6665C54.8335 53.9759 54.7106 54.2727 54.4918 54.4915C54.273 54.7103 53.9763 54.8332 53.6668 54.8332Z" fill="#0ECB78"/>
<path d="M1.16667 4.66683H3.85L8.23667 16.7325C8.31857 16.9575 8.46775 17.1519 8.66394 17.2893C8.86014 17.4266 9.09385 17.5002 9.33333 17.5002H13.048C13.3232 18.2786 13.8647 18.9346 14.5769 19.3524C15.289 19.7702 16.1259 19.9227 16.9397 19.7831C17.7534 19.6435 18.4916 19.2207 19.0238 18.5894C19.556 17.9582 19.8478 17.1591 19.8478 16.3335C19.8478 15.5079 19.556 14.7088 19.0238 14.0776C18.4916 13.4463 17.7534 13.0235 16.9397 12.8839C16.1259 12.7443 15.289 12.8968 14.5769 13.3146C13.8647 13.7323 13.3232 14.3884 13.048 15.1668H10.15L5.76333 3.10116C5.68143 2.87612 5.53225 2.68173 5.33606 2.54439C5.13986 2.40706 4.90615 2.33342 4.66667 2.3335H1.16667C0.857247 2.3335 0.560501 2.45641 0.341709 2.67521C0.122916 2.894 0 3.19074 0 3.50016C0 3.80958 0.122916 4.10633 0.341709 4.32512C0.560501 4.54391 0.857247 4.66683 1.16667 4.66683V4.66683ZM16.3333 15.1668C16.5641 15.1668 16.7896 15.2353 16.9815 15.3634C17.1734 15.4916 17.3229 15.6739 17.4112 15.887C17.4995 16.1002 17.5226 16.3348 17.4776 16.5611C17.4326 16.7874 17.3215 16.9953 17.1583 17.1585C16.9951 17.3216 16.7873 17.4327 16.5609 17.4777C16.3346 17.5228 16.1 17.4997 15.8869 17.4114C15.6737 17.3231 15.4915 17.1735 15.3633 16.9817C15.2351 16.7898 15.1667 16.5642 15.1667 16.3335C15.1667 16.0241 15.2896 15.7273 15.5084 15.5085C15.7272 15.2897 16.0239 15.1668 16.3333 15.1668V15.1668Z" fill="#0ECB78"/>
<path d="M1.16667 66.4999H13.7247L20.4785 69.8833C20.641 69.962 20.8195 70.0019 21 69.9999H35C35.3094 69.9999 35.6062 69.877 35.825 69.6582C36.0437 69.4394 36.1667 69.1427 36.1667 68.8333V63.9519C36.9451 63.6767 37.6011 63.1352 38.0189 62.423C38.4367 61.7109 38.5892 60.874 38.4496 60.0602C38.31 59.2465 37.8872 58.5083 37.2559 57.9761C36.6247 57.444 35.8256 57.1521 35 57.1521C34.1744 57.1521 33.3753 57.444 32.7441 57.9761C32.1128 58.5083 31.69 59.2465 31.5504 60.0602C31.4108 60.874 31.5633 61.7109 31.9811 62.423C32.3988 63.1352 33.0549 63.6767 33.8333 63.9519V67.6666H21.2753L14.5215 64.2833C14.359 64.2045 14.1805 64.1646 14 64.1666H1.16667C0.857247 64.1666 0.560501 64.2895 0.341709 64.5083C0.122916 64.7271 0 65.0238 0 65.3333C0 65.6427 0.122916 65.9394 0.341709 66.1582C0.560501 66.377 0.857247 66.4999 1.16667 66.4999V66.4999ZM35 59.4999C35.2307 59.4999 35.4563 59.5684 35.6482 59.6966C35.84 59.8247 35.9896 60.007 36.0779 60.2201C36.1662 60.4333 36.1893 60.6679 36.1442 60.8942C36.0992 61.1205 35.9881 61.3284 35.825 61.4916C35.6618 61.6547 35.4539 61.7658 35.2276 61.8108C35.0013 61.8559 34.7667 61.8328 34.5535 61.7445C34.3404 61.6562 34.1581 61.5066 34.0299 61.3148C33.9018 61.1229 33.8333 60.8973 33.8333 60.6666C33.8333 60.3572 33.9562 60.0604 34.175 59.8416C34.3938 59.6228 34.6906 59.4999 35 59.4999Z" fill="#133249"/>
<path d="M34.9995 14C30.5276 14.0035 26.1738 15.4355 22.573 18.0873C18.9722 20.739 16.3126 24.4717 14.9823 28.7411C13.6519 33.0105 13.7203 37.5933 15.1775 41.8211C16.6346 46.0489 19.4043 49.7006 23.0826 52.2437C26.7609 54.7869 31.1555 56.0884 35.6255 55.9585C40.0955 55.8286 44.407 54.274 47.9315 51.5216C51.4559 48.7691 54.0088 44.9627 55.2179 40.6574C56.4271 36.3521 56.2292 31.7731 54.6531 27.5882C54.6007 27.4426 54.5199 27.3089 54.4153 27.1949C54.3108 27.0809 54.1846 26.9888 54.0441 26.924C53.9036 26.8592 53.7517 26.823 53.5971 26.8175C53.4425 26.812 53.2883 26.8373 53.1436 26.8919C52.9988 26.9465 52.8664 27.0293 52.754 27.1356C52.6416 27.2419 52.5514 27.3695 52.4887 27.5109C52.4261 27.6524 52.3922 27.8049 52.389 27.9595C52.3859 28.1142 52.4135 28.2679 52.4703 28.4118C53.4452 30.9978 53.8317 33.7686 53.6016 36.5226C53.3716 39.2767 52.5307 41.9449 51.1403 44.3333H47.8328V32.6667H50.1661C50.4147 32.6665 50.6567 32.587 50.8569 32.4397C51.0571 32.2924 51.2051 32.085 51.2792 31.8478C51.3533 31.6105 51.3497 31.3558 51.2688 31.1207C51.188 30.8857 51.0343 30.6826 50.83 30.541L35.6633 20.041C35.4682 19.906 35.2367 19.8337 34.9995 19.8337C34.7623 19.8337 34.5307 19.906 34.3356 20.041L19.169 30.541C18.9646 30.6826 18.8109 30.8857 18.7301 31.1207C18.6493 31.3558 18.6456 31.6105 18.7197 31.8478C18.7938 32.085 18.9418 32.2924 19.142 32.4397C19.3422 32.587 19.5842 32.6665 19.8328 32.6667H22.1661V44.3333H18.8586C16.6556 40.5279 15.8676 36.0666 16.6336 31.7368C17.3997 27.4069 19.6706 23.4868 23.0456 20.6683C26.4205 17.8497 30.6826 16.314 35.0797 16.332C39.4768 16.35 43.7262 17.9206 47.078 20.7667C47.194 20.8708 47.3297 20.9506 47.4771 21.0014C47.6245 21.0521 47.7806 21.0728 47.9361 21.0623C48.0916 21.0517 48.2435 21.0101 48.3827 20.9399C48.5218 20.8697 48.6455 20.7723 48.7464 20.6534C48.8473 20.5346 48.9234 20.3967 48.9701 20.248C49.0168 20.0993 49.0333 19.9427 49.0185 19.7875C49.0037 19.6323 48.9579 19.4817 48.8839 19.3445C48.8099 19.2073 48.7092 19.0863 48.5876 18.9887C44.7921 15.7688 39.9768 14.0009 34.9995 14ZM45.4995 44.3333H43.1661V32.6667H45.4995V44.3333ZM34.9995 22.4187L46.4328 30.3333H39.6661C39.3567 30.3333 39.06 30.4562 38.8412 30.675C38.6224 30.8938 38.4995 31.1906 38.4995 31.5C38.4995 31.8094 38.6224 32.1062 38.8412 32.325C39.06 32.5438 39.3567 32.6667 39.6661 32.6667H40.8328V44.3333H36.1661V42.952C36.9439 42.678 37.5997 42.1377 38.0172 41.4265C38.4347 40.7154 38.5871 39.8795 38.4474 39.0668C38.3077 38.2541 37.8848 37.5171 37.2537 36.9862C36.6227 36.4554 35.8241 36.1651 34.9995 36.1667C34.7687 36.1667 34.5431 36.0982 34.3513 35.97C34.1594 35.8419 34.0099 35.6596 33.9216 35.4465C33.8333 35.2333 33.8102 34.9987 33.8552 34.7724C33.9002 34.5461 34.0113 34.3382 34.1745 34.175C34.3377 34.0119 34.5455 33.9008 34.7719 33.8557C34.9982 33.8107 35.2327 33.8338 35.4459 33.9221C35.6591 34.0104 35.8413 34.16 35.9695 34.3518C36.0977 34.5437 36.1661 34.7693 36.1661 35C36.1661 35.3094 36.289 35.6062 36.5078 35.825C36.7266 36.0438 37.0234 36.1667 37.3328 36.1667C37.6422 36.1667 37.939 36.0438 38.1577 35.825C38.3765 35.6062 38.4995 35.3094 38.4995 35C38.4965 34.2787 38.2707 33.5759 37.853 32.9879C37.4353 32.3998 36.8462 31.9551 36.1661 31.7147V29.1667C36.1661 28.8572 36.0432 28.5605 35.8244 28.3417C35.6056 28.1229 35.3089 28 34.9995 28C34.69 28 34.3933 28.1229 34.1745 28.3417C33.9557 28.5605 33.8328 28.8572 33.8328 29.1667V31.7147C33.055 31.9886 32.3993 32.529 31.9817 33.2401C31.5642 33.9512 31.4118 34.7872 31.5515 35.5999C31.6912 36.4126 32.1141 37.1496 32.7452 37.6804C33.3763 38.2112 34.1748 38.5016 34.9995 38.5C35.2302 38.5 35.4558 38.5684 35.6476 38.6966C35.8395 38.8248 35.989 39.007 36.0773 39.2202C36.1656 39.4334 36.1887 39.668 36.1437 39.8943C36.0987 40.1206 35.9876 40.3285 35.8244 40.4916C35.6613 40.6548 35.4534 40.7659 35.2271 40.8109C35.0008 40.8559 34.7662 40.8328 34.553 40.7445C34.3398 40.6562 34.1576 40.5067 34.0294 40.3148C33.9012 40.123 33.8328 39.8974 33.8328 39.6667C33.8328 39.3572 33.7099 39.0605 33.4911 38.8417C33.2723 38.6229 32.9755 38.5 32.6661 38.5C32.3567 38.5 32.06 38.6229 31.8412 38.8417C31.6224 39.0605 31.4995 39.3572 31.4995 39.6667C31.5024 40.388 31.7282 41.0907 32.1459 41.6788C32.5636 42.2669 33.1527 42.7116 33.8328 42.952V44.3333H29.1661V32.6667H30.3328C30.6422 32.6667 30.939 32.5438 31.1577 32.325C31.3765 32.1062 31.4995 31.8094 31.4995 31.5C31.4995 31.1906 31.3765 30.8938 31.1577 30.675C30.939 30.4562 30.6422 30.3333 30.3328 30.3333H23.5661L34.9995 22.4187ZM24.4995 32.6667H26.8328V44.3333H24.4995V32.6667ZM23.3328 46.6667H49.5478C47.8038 48.8507 45.5904 50.614 43.0719 51.8258C40.5534 53.0377 37.7944 53.667 34.9995 53.667C32.2046 53.667 29.4455 53.0377 26.927 51.8258C24.4085 50.614 22.1951 48.8507 20.4511 46.6667H23.3328Z" fill="#133249"/>
</svg>
