<svg width="70" height="65" viewBox="0 0 70 65" fill="none" xmlns="http://www.w3.org/2000/svg">
<path d="M38.759 35.8967C36.239 35.8956 33.763 36.5575 31.5797 37.8159C31.4552 37.8878 31.3461 37.9835 31.2586 38.0976C31.1711 38.2117 31.107 38.3419 31.0698 38.4807C31.0326 38.6196 31.0232 38.7644 31.042 38.907C31.0608 39.0495 31.1075 39.1869 31.1794 39.3114C31.2513 39.4359 31.347 39.545 31.4611 39.6325C31.5752 39.72 31.7054 39.7841 31.8442 39.8213C31.9831 39.8585 32.1279 39.8679 32.2705 39.8491C32.413 39.8303 32.5504 39.7836 32.6749 39.7117C35.3561 38.1615 38.5267 37.6897 41.5431 38.3921C44.5595 39.0944 47.1956 40.9183 48.9162 43.4935C50.6368 46.0686 51.313 49.202 50.8075 52.2576C50.302 55.3131 48.6527 58.0618 46.1945 59.9456C43.7362 61.8294 40.6532 62.7072 37.5713 62.4007C34.4894 62.0942 31.6396 60.6265 29.6005 58.2954C27.5614 55.9643 26.4858 52.9446 26.592 49.8494C26.6982 46.7541 27.9783 43.8152 30.1724 41.6294C30.2771 41.5288 30.3607 41.4083 30.4183 41.275C30.4759 41.1417 30.5064 40.9982 30.508 40.853C30.5096 40.7078 30.4822 40.5637 30.4275 40.4292C30.3729 40.2947 30.2919 40.1724 30.1895 40.0695C30.0871 39.9665 29.9651 39.885 29.8309 39.8297C29.6966 39.7744 29.5527 39.7464 29.4074 39.7473C29.2622 39.7482 29.1187 39.778 28.9851 39.835C28.8515 39.892 28.7306 39.975 28.6295 40.0792C26.2734 42.4237 24.8036 45.5129 24.4707 48.82C24.1378 52.1271 24.9623 55.4472 26.8038 58.2143C28.6453 60.9813 31.3896 63.0239 34.5688 63.9937C37.748 64.9635 41.1651 64.8004 44.2375 63.5322C47.3099 62.2641 49.8472 59.9695 51.4168 57.0396C52.9864 54.1097 53.491 50.7261 52.8446 47.4658C52.1983 44.2054 50.4409 41.2703 47.8723 39.1608C45.3037 37.0514 42.0828 35.8983 38.759 35.8982V35.8967Z" fill="#133249"/>
<path d="M39.9478 54.5809H37.2017C36.9894 54.5813 36.7791 54.5398 36.5828 54.4589C36.3866 54.3779 36.2081 54.2591 36.0578 54.1092C35.9075 53.9592 35.7882 53.7812 35.7067 53.5851C35.6252 53.389 35.5832 53.1788 35.583 52.9665C35.583 52.6764 35.4678 52.3982 35.2627 52.1931C35.0575 51.988 34.7793 51.8728 34.4893 51.8728C34.1992 51.8728 33.921 51.988 33.7159 52.1931C33.5107 52.3982 33.3955 52.6764 33.3955 52.9665C33.3967 53.9745 33.7976 54.9408 34.5103 55.6536C35.2231 56.3663 36.1894 56.7672 37.1974 56.7684H37.4788V58.8655C37.4788 59.1555 37.5941 59.4337 37.7992 59.6389C38.0043 59.844 38.2825 59.9592 38.5726 59.9592C38.8627 59.9592 39.1409 59.844 39.346 59.6389C39.5511 59.4337 39.6663 59.1555 39.6663 58.8655V56.7684H39.9449C40.9532 56.7684 41.9202 56.3678 42.6332 55.6549C43.3462 54.9419 43.7467 53.9748 43.7467 52.9665C43.7467 51.9582 43.3462 50.9912 42.6332 50.2782C41.9202 49.5652 40.9532 49.1647 39.9449 49.1647H37.2017C36.7818 49.152 36.3833 48.9763 36.0907 48.6748C35.7981 48.3733 35.6345 47.9697 35.6345 47.5496C35.6345 47.1294 35.7981 46.7258 36.0907 46.4243C36.3833 46.1228 36.7818 45.9471 37.2017 45.9345H39.9478C40.3758 45.9349 40.7862 46.1051 41.0889 46.4077C41.3916 46.7104 41.5618 47.1208 41.5621 47.5488C41.5621 47.8389 41.6774 48.1171 41.8825 48.3222C42.0876 48.5273 42.3658 48.6426 42.6559 48.6426C42.946 48.6426 43.2242 48.5273 43.4293 48.3222C43.6344 48.1171 43.7496 47.8389 43.7496 47.5488C43.7485 46.5409 43.3476 45.5745 42.6348 44.8618C41.9221 44.1491 40.9557 43.7481 39.9478 43.747H39.6663V41.6484C39.6663 41.3584 39.5511 41.0802 39.346 40.875C39.1409 40.6699 38.8627 40.5547 38.5726 40.5547C38.2825 40.5547 38.0043 40.6699 37.7992 40.875C37.5941 41.0802 37.4788 41.3584 37.4788 41.6484V43.747H37.2017C36.2061 43.7665 35.2579 44.1757 34.5607 44.8867C33.8634 45.5977 33.4729 46.5538 33.4729 47.5496C33.4729 48.5454 33.8634 49.5015 34.5607 50.2125C35.2579 50.9235 36.2061 51.3327 37.2017 51.3522H39.9478C40.3759 51.3522 40.7866 51.5222 41.0893 51.825C41.3921 52.1277 41.5621 52.5384 41.5621 52.9665C41.5621 53.3947 41.3921 53.8053 41.0893 54.1081C40.7866 54.4108 40.3759 54.5809 39.9478 54.5809V54.5809Z" fill="#0ECB78"/>
<path d="M64.7747 20.1193C64.4984 20.0516 64.2066 20.0942 63.9612 20.238C63.7158 20.3819 63.5361 20.6157 63.4602 20.8898C63.3843 21.164 63.4182 21.4569 63.5547 21.7065C63.6912 21.9561 63.9196 22.1426 64.1914 22.2266C67.1503 23.0491 67.8168 23.9766 67.8168 24.2274C67.8168 25.1404 63.5366 27.2812 55.2387 27.2812C46.9408 27.2812 42.6592 25.1404 42.6592 24.2274C42.6592 23.3145 46.9379 21.1737 55.2387 21.1737C57.2018 21.1666 59.1628 21.3046 61.1056 21.5864C61.3885 21.6201 61.6734 21.5422 61.8998 21.3692C62.1262 21.1963 62.2763 20.9419 62.3182 20.6601C62.3602 20.3783 62.2907 20.0912 62.1244 19.8599C61.9582 19.6285 61.7083 19.471 61.4279 19.4208C59.3783 19.1242 57.3097 18.9779 55.2387 18.9833C48.1264 18.9833 40.4717 20.6239 40.4717 24.2245V32.7339C40.4717 36.3345 48.1264 37.9751 55.2387 37.9751C60.0191 37.9751 65.0358 37.2299 67.8168 35.6491V36.9878C67.8168 37.9007 63.5366 40.0416 55.2387 40.0416C54.2864 40.0416 53.3589 40.0124 52.4679 39.9541C52.1784 39.9372 51.8939 40.0347 51.6756 40.2257C51.4574 40.4167 51.3229 40.6857 51.3012 40.9749C51.2911 41.1186 51.3096 41.263 51.3555 41.3995C51.4014 41.5361 51.4739 41.6623 51.5688 41.7707C51.6637 41.8792 51.7791 41.9678 51.9084 42.0314C52.0377 42.095 52.1782 42.1325 52.3221 42.1416C53.2627 42.2028 54.2383 42.2349 55.2387 42.2349C60.0191 42.2349 65.0358 41.4897 67.8168 39.9016V41.2403C67.8168 42.1532 63.5366 44.3028 55.2387 44.3028C55.2387 44.3028 54.7823 44.3116 54.5795 44.3028C54.2927 44.3047 54.0172 44.4151 53.8084 44.6118C53.5996 44.8084 53.4729 45.0768 53.4537 45.363C53.4455 45.6532 53.5526 45.9347 53.7516 46.146C53.9506 46.3574 54.2253 46.4811 54.5154 46.4903H55.2445C60.025 46.4903 65.0416 45.7436 67.8226 44.157V45.4957C67.8226 46.4086 63.5424 48.5495 55.2445 48.5495C54.9545 48.5495 54.6763 48.6647 54.4712 48.8698C54.266 49.0749 54.1508 49.3531 54.1508 49.6432C54.1508 49.9333 54.266 50.2115 54.4712 50.4166C54.6763 50.6217 54.9545 50.7369 55.2445 50.7369C60.025 50.7369 65.0416 49.9903 67.8226 48.4109V49.8561C67.8226 50.769 63.5424 52.9099 55.2445 52.9099H54.8523C54.567 52.9222 54.2964 53.0395 54.0924 53.2392C53.8883 53.439 53.7653 53.707 53.7468 53.9919C53.7441 54.2819 53.8565 54.5611 54.0594 54.7683C54.2622 54.9756 54.539 55.0939 54.8289 55.0974H55.2445C62.3452 55.1017 69.9999 53.4611 69.9999 49.8605V24.2274C69.9999 23.017 69.0928 21.3225 64.7747 20.1193V20.1193ZM55.2343 29.4687C60.0147 29.4687 65.0314 28.7235 67.8124 27.1426V28.4814C67.8124 29.3943 63.5322 31.5439 55.2343 31.5439C46.9364 31.5439 42.6548 29.4016 42.6548 28.4814V27.1426C45.4358 28.7235 50.4583 29.4687 55.2343 29.4687ZM55.2343 35.7905C46.9335 35.7905 42.6548 33.6497 42.6548 32.7368V31.398C45.4358 32.9789 50.451 33.7314 55.2343 33.7314C60.0177 33.7314 65.0314 32.9862 67.8124 31.398V32.7368C67.8124 33.6497 63.5322 35.7905 55.2343 35.7905Z" fill="#133249"/>
<path d="M23.0416 56.0567C22.6566 56.0713 22.2687 56.08 21.8749 56.08C10.2812 56.08 2.18749 49.4286 2.18749 39.9057C2.18749 32.1401 7.43748 20.6557 15.2672 15.938C15.3737 15.8724 15.4627 15.7922 15.5589 15.7193H24.4999C24.79 15.7193 25.0682 15.6041 25.2733 15.3989C25.4784 15.1938 25.5937 14.9156 25.5937 14.6255C25.5937 14.3355 25.4784 14.0573 25.2733 13.8522C25.0682 13.647 24.79 13.5318 24.4999 13.5318H16.9385C17.0877 12.7097 16.9177 11.8616 16.4631 11.1606C12.7662 5.4337 12.0473 2.85684 12.1814 2.18892C12.1955 2.19717 12.2118 2.20074 12.2281 2.19913C13.8705 2.21057 15.5027 2.45911 17.0741 2.93705C18.5944 3.39914 20.1723 3.64461 21.7612 3.66621C23.5574 3.62215 25.3416 3.35867 27.0739 2.88163C28.4467 2.5036 29.8563 2.27478 31.2782 2.19913C31.2389 3.02309 30.4222 5.45704 27.5974 10.2783H19.2499C18.9599 10.2783 18.6817 10.3935 18.4765 10.5986C18.2714 10.8037 18.1562 11.0819 18.1562 11.372C18.1562 11.6621 18.2714 11.9403 18.4765 12.1454C18.6817 12.3505 18.9599 12.4658 19.2499 12.4658H26.632C26.5781 12.8734 26.6018 13.2876 26.702 13.6864C26.8192 14.1394 27.0257 14.5645 27.3095 14.9367C27.5932 15.3088 27.9484 15.6205 28.3543 15.8535C32.2914 18.4177 35.4842 21.9731 37.6118 26.1624C37.6783 26.2923 37.7702 26.4075 37.8819 26.5014C37.9937 26.5952 38.1231 26.6658 38.2626 26.7088C38.402 26.7519 38.5487 26.7666 38.6939 26.7521C38.8392 26.7375 38.98 26.6941 39.1082 26.6243C39.2364 26.5546 39.3493 26.4598 39.4403 26.3457C39.5313 26.2316 39.5985 26.1005 39.6381 25.96C39.6776 25.8195 39.6886 25.6725 39.6705 25.5277C39.6523 25.3829 39.6054 25.2432 39.5324 25.1168C37.2168 20.5811 33.7459 16.7365 29.4699 13.9708C29.3131 13.8836 29.1753 13.7661 29.0644 13.6252C28.9535 13.4842 28.8717 13.3226 28.8239 13.1497C28.7866 13.0046 28.7791 12.8533 28.8019 12.7052C28.8247 12.557 28.8773 12.4151 28.9566 12.2878C34.4457 3.15579 33.5591 1.58809 33.1857 0.912885C33.0194 0.625226 32.7778 0.388354 32.487 0.227755C32.1961 0.0671551 31.8669 -0.0110928 31.5349 0.00142959C29.8582 0.0496559 28.1934 0.299863 26.5766 0.746635C25.008 1.18432 23.3919 1.42918 21.7641 1.4758C20.3642 1.45093 18.9748 1.22852 17.637 0.815177C15.8823 0.291178 14.0622 0.018193 12.231 0.00434621C11.8398 -0.0209918 11.4494 0.0648371 11.1049 0.251922C10.7604 0.439006 10.4759 0.719716 10.2841 1.06163C9.91663 1.73684 8.93955 3.53059 14.6285 12.3418C14.7141 12.4687 14.7724 12.612 14.7997 12.7626C14.8271 12.9132 14.8229 13.0679 14.7875 13.2168C14.7422 13.3944 14.6615 13.561 14.5503 13.7066C14.439 13.8522 14.2994 13.9738 14.14 14.0641C5.68748 19.1639 0 31.5436 0 39.9057C0 50.5442 9.20205 58.2733 21.8749 58.2733C22.2949 58.2733 22.712 58.2646 23.1262 58.2471C23.2698 58.2414 23.4109 58.2075 23.5415 58.1474C23.672 58.0872 23.7894 58.0019 23.887 57.8963C23.9845 57.7907 24.0604 57.667 24.1101 57.5321C24.1599 57.3973 24.1826 57.2539 24.1769 57.1103C24.1713 56.9667 24.1374 56.8256 24.0772 56.695C24.017 56.5645 23.9317 56.4471 23.8261 56.3495C23.7206 56.252 23.5968 56.1761 23.462 56.1264C23.3271 56.0766 23.1838 56.0539 23.0401 56.0596L23.0416 56.0567Z" fill="#133249"/>
</svg>
