<svg width="75" height="57" viewBox="0 0 75 57" fill="none" xmlns="http://www.w3.org/2000/svg">
<path d="M74.3981 12.4783C73.8576 11.6525 73.0167 11.0819 72.0558 10.8867L19.9246 0.0761248C18.9636 -0.119067 17.9576 0.06111 17.1468 0.616656C16.321 1.14217 15.7505 1.983 15.5553 2.94394L14.5943 7.56849L13.9771 10.5663C13.7857 11.4959 12.9673 12.163 12.0182 12.163H3.69363C1.65162 12.163 0 13.8146 0 15.8566V52.3425C0 54.3845 1.65162 56.0361 3.69363 56.0361H56.9359C57.9489 56.0361 58.8898 55.6201 59.5664 54.9297C60.3136 54.1673 61.3161 53.4602 62.3611 53.6786L63.152 53.844C63.3923 53.889 63.6475 53.919 63.9028 53.919C65.6595 53.919 67.161 52.6878 67.5213 50.9761L72.1309 28.7543L73.9927 19.7455L74.9236 15.241C75.1188 14.2801 74.9386 13.2891 74.3981 12.4783ZM15.762 10.804C15.8884 10.1942 16.4845 9.80169 17.0947 9.92662V9.92662C18.4284 10.1997 18.2294 12.163 16.8681 12.163V12.163C16.152 12.163 15.6166 11.5052 15.762 10.804V10.804ZM56.9359 54.2343H3.69363C2.6426 54.2343 1.80177 53.3935 1.80177 52.3425V15.8566C1.78676 14.8206 2.62758 13.9798 3.6636 13.9648H3.69363H56.9359C57.987 13.9648 58.8278 14.8056 58.8278 15.8566V52.3425C58.8428 53.3785 58.002 54.2193 56.966 54.2343C56.951 54.2343 56.951 54.2343 56.9359 54.2343ZM60.6296 21.2983C60.6296 20.0316 61.7922 19.0839 63.0329 19.3394L69.8984 20.7528C70.9815 20.9759 71.6781 22.0356 71.4533 23.1184L71.12 24.7233C70.8978 25.7933 69.858 26.4869 68.7847 26.2808L62.2525 25.0269C61.3105 24.8461 60.6296 24.0219 60.6296 23.0627V21.2983ZM65.7496 50.6158C65.5551 51.618 64.5858 52.2774 63.569 52.0894C63.5614 52.088 63.5545 52.0875 63.5467 52.087V52.087C63.5224 52.0856 63.4997 52.0696 63.4758 52.0648L62.2314 51.812C61.2994 51.6227 60.6296 50.8031 60.6296 49.852V28.9661C60.6296 27.7108 61.7725 26.7658 63.0055 27.0018L68.3639 28.0272C69.4608 28.2371 70.1732 29.3045 69.9463 30.398L65.7496 50.6158ZM61.7622 17.2446C61.103 17.1096 60.6296 16.5296 60.6296 15.8566V15.8566C60.6296 13.8146 58.9779 12.163 56.9359 12.163H37.1846C37.0494 12.163 36.9146 12.1493 36.7822 12.1221L18.3297 8.33215C17.246 8.10956 16.5488 7.04938 16.7739 5.96615L17.327 3.3043C17.4171 2.80881 17.7174 2.3884 18.1378 2.11813C18.4381 1.90792 18.7985 1.80282 19.1738 1.80282C19.294 1.80282 19.4291 1.81784 19.5492 1.84787L71.6954 12.6435C72.7164 12.8537 73.3621 13.8597 73.1519 14.8807L72.625 17.4302C72.4017 18.5105 71.346 19.206 70.2653 18.9849L61.7622 17.2446Z" fill="#133249"/>
<path d="M9.47445 26.7123H13.8137C14.8798 26.6973 15.7356 25.8415 15.7206 24.7754V24.7604V21.5172C15.7356 20.4512 14.8798 19.5653 13.8137 19.5503H9.47445C8.40841 19.5653 7.55257 20.4512 7.56758 21.5172V24.7604C7.55257 25.8265 8.39339 26.6973 9.47445 26.7123V26.7123ZM9.36935 21.5172C9.36935 21.4121 9.42941 21.3521 9.47445 21.3521H13.8137C13.8588 21.3521 13.9188 21.4121 13.9188 21.5172V24.7604C13.9188 24.8505 13.8588 24.9106 13.8137 24.9106H9.47445C9.42941 24.9106 9.36935 24.8505 9.36935 24.7604V21.5172Z" fill="#133249"/>
<path d="M5.16504 43.1387H7.85268V44.9404H5.16504V43.1387Z" fill="#0ECB78"/>
<path d="M9.53418 43.1387H12.2218V44.9404H9.53418V43.1387Z" fill="#0ECB78"/>
<path d="M13.9639 43.1387H16.6515V44.9404H13.9639V43.1387Z" fill="#0ECB78"/>
<path d="M18.333 43.1387H21.0206V44.9404H18.333V43.1387Z" fill="#0ECB78"/>
<path d="M22.7764 43.1387H25.464V44.9404H22.7764V43.1387Z" fill="#0ECB78"/>
<path d="M47.1016 17.313H48.9033V20.0006H47.1016V17.313Z" fill="#0ECB78"/>
<path d="M50.7949 17.313H52.5967V20.0006H50.7949V17.313Z" fill="#0ECB78"/>
<path d="M39.0986 17.313H40.9004V20.0006H39.0986V17.313Z" fill="#0ECB78"/>
<path d="M42.792 17.313H44.5938V20.0006H42.792V17.313Z" fill="#0ECB78"/>
<path d="M5.16504 49.0393H25.465V50.8411H5.16504V49.0393Z" fill="#133249"/>
</svg>
