<svg width="80" height="80" viewBox="0 0 80 80" fill="none" xmlns="http://www.w3.org/2000/svg">
<path d="M23.0159 33.2645C22.2536 32.6117 21.1064 32.7004 20.4536 33.4627C19.8709 34.143 19.8709 35.1464 20.4536 35.8268L38.6262 53.9996C39.3279 54.7172 40.4784 54.7302 41.196 54.0285C41.2057 54.019 41.2154 54.0094 41.2249 53.9996L71.5371 22.1972L74.1358 19.4712L79.3513 14.0194C80.1197 13.3738 80.2192 12.2275 79.5736 11.459C78.928 10.6906 77.7817 10.5912 77.0131 11.2368C76.9096 11.3238 76.8162 11.422 76.7344 11.5297L72.064 16.3818L69.538 19.0351L39.8801 50.1287L23.0159 33.2645Z" fill="#0DA864"/>
<path d="M76.6441 24.6869H76.6805C75.9399 24.0094 74.7905 24.0606 74.113 24.8012C73.6927 25.2606 73.5369 25.9033 73.7001 26.5042C81.1257 45.1533 72.0273 66.2911 53.3784 73.7166C34.7294 81.1421 13.5916 72.0438 6.1659 53.3947C-1.25977 34.7457 7.83865 13.608 26.4878 6.18237C40.1945 0.724632 55.8406 4.09404 66.0858 14.71C66.8629 15.3451 68.0078 15.23 68.6429 14.4529C69.2145 13.7536 69.1858 12.7407 68.5755 12.0749C68.5005 12.0205 68.4215 11.9718 68.3392 11.9295C52.8975 -3.78296 27.642 -4.00253 11.9296 11.4391C-3.78288 26.8808 -4.00261 52.1363 11.439 67.8487C26.8807 83.5613 52.1362 83.7809 67.8486 68.3392C79.2097 57.174 82.839 40.32 77.0803 25.4683C77.0022 25.1755 76.8523 24.9069 76.6441 24.6869Z" fill="#133249"/>
</svg>
