<svg width="80" height="80" viewBox="0 0 80 80" fill="none" xmlns="http://www.w3.org/2000/svg">
<path fill-rule="evenodd" clip-rule="evenodd" d="M40 0C17.9238 0 0 17.9238 0 40C0 62.0762 17.9238 80 40 80C62.0762 80 80 62.0762 80 40C80 17.9238 62.0764 0 40 0ZM13.0697 15.7005C7.25949 22.1339 3.72088 30.6567 3.72088 40C3.72088 60.0224 19.9776 76.2791 40 76.2791C49.3433 76.2791 57.8661 72.7405 64.2995 66.9303L13.0697 15.7005ZM66.9303 64.2997C72.7405 57.8662 76.2791 49.3434 76.2791 40.0002C76.2791 19.9778 60.0224 3.72105 40 3.72105C30.6567 3.72105 22.1339 7.25966 15.7005 13.0699L66.9303 64.2997Z" fill="#133249"/>
</svg>
