<svg width="180" height="72" viewBox="0 0 180 72" fill="none" xmlns="http://www.w3.org/2000/svg">
<circle cx="42.2669" cy="45.6723" r="2.55308" fill="#11CC7A"/>
<circle cx="2.55308" cy="45.6723" r="2.55308" fill="#AFD37F"/>
<circle cx="42.2669" cy="30.3537" r="2.55308" fill="#11CC7A"/>
<circle cx="2.55308" cy="30.3537" r="2.55308" fill="#AFD37F"/>
<circle cx="12.2025" cy="50.7773" r="2.55308" fill="#AFD37F"/>
<circle cx="12.2025" cy="36.5942" r="2.55308" fill="#AFD37F"/>
<circle cx="33.1947" cy="21.8429" r="2.55308" fill="#11CC7A"/>
<circle cx="12.2025" cy="21.8429" r="2.55308" fill="#AFD37F"/>
<circle cx="23.5443" cy="30.9201" r="2.55308" fill="#11CC7A"/>
<circle cx="23.5443" cy="16.7361" r="2.55308" fill="#AFD37F"/>
<circle cx="33.1957" cy="11.064" r="2.55308" fill="#AFD37F"/>
<circle cx="12.2025" cy="11.064" r="2.55308" fill="#AFD37F"/>
<circle cx="23.5443" cy="2.55295" r="2.55308" fill="#AFD37F"/>
<circle cx="23.5443" cy="68.9324" r="2.55308" fill="#11CC7A"/>
<circle cx="23.5443" cy="56.4515" r="2.55308" fill="#11CC7A"/>
<circle cx="33.1947" cy="50.7773" r="2.55308" fill="#11CC7A"/>
<circle cx="33.1947" cy="36.5942" r="2.55308" fill="#11CC7A"/>
<circle cx="23.5443" cy="43.4021" r="2.55308" fill="#11CC7A"/>
<path d="M80.4172 45.5657C78.4959 45.5657 76.8558 44.9097 75.4969 43.5976V49.8709C75.4969 50.773 75.6902 51.3353 76.0768 51.5579C76.4751 51.7804 77.4709 51.8917 79.0641 51.8917V53.8247H69.2411V51.8917C70.2486 51.8917 70.8812 51.7863 71.139 51.5754C71.3967 51.3763 71.5548 51.1596 71.6134 50.9253C71.672 50.691 71.7013 50.3981 71.7013 50.0466V31.7714C71.7013 30.9279 71.6251 30.3773 71.4728 30.1196C71.3323 29.8618 70.9339 29.733 70.2779 29.733H69.0303V27.8C70.19 27.8 71.098 27.718 71.754 27.554C72.41 27.3783 72.8786 27.2553 73.1598 27.185C73.4409 27.103 73.7397 27.062 74.056 27.062C74.6769 27.062 75.081 27.2436 75.2685 27.6067C75.4676 27.9582 75.5672 28.5263 75.5672 29.3112V29.364C76.8793 27.8176 78.6658 27.0444 80.9268 27.0444C83.1995 27.0444 85.0328 27.8117 86.4269 29.3464C87.821 30.8693 88.518 33.0834 88.518 35.9887C88.518 38.894 87.7917 41.2195 86.3391 42.965C84.8981 44.6988 82.9242 45.5657 80.4172 45.5657ZM75.409 36.4983C75.409 38.6539 75.8249 40.3525 76.6567 41.5943C77.4884 42.8361 78.6014 43.457 79.9954 43.457C81.3778 43.457 82.4614 42.8244 83.2463 41.5592C84.0312 40.2823 84.4237 38.5836 84.4237 36.4632C84.4237 33.0776 83.6036 30.84 81.9635 29.7506C81.3778 29.3522 80.6866 29.1531 79.89 29.1531C79.0934 29.1531 78.4198 29.3405 77.8692 29.7154C77.3186 30.0903 76.8617 30.6057 76.4985 31.2618C75.7722 32.5973 75.409 34.3428 75.409 36.4983Z" fill="white"/>
<path d="M91.6459 36.2172C91.6459 34.8114 91.8626 33.5169 92.2961 32.3337C92.7413 31.1388 93.3563 30.1489 94.1412 29.364C95.6876 27.8176 97.7435 27.0444 100.309 27.0444C102.898 27.0444 104.983 27.8235 106.565 29.3815C108.158 30.9279 108.955 33.1303 108.955 35.9887C108.955 38.8355 108.223 41.1433 106.758 42.9123C105.294 44.6812 103.144 45.5657 100.309 45.5657C97.4741 45.5657 95.3185 44.7105 93.8425 43.0001C92.3781 41.278 91.6459 39.017 91.6459 36.2172ZM100.309 43.457C101.668 43.457 102.769 42.8361 103.613 41.5943C104.468 40.3525 104.895 38.607 104.895 36.3578C104.895 32.7379 103.982 30.4769 102.154 29.5748C101.592 29.2937 100.977 29.1531 100.309 29.1531C98.1418 29.1531 96.7302 30.4652 96.0741 33.0893C95.8398 33.9914 95.7227 35.0457 95.7227 36.2523C95.7227 38.5719 96.1444 40.3525 96.9879 41.5943C97.8431 42.8361 98.9502 43.457 100.309 43.457Z" fill="white"/>
<path d="M122.907 45.5657C120.986 45.5657 119.346 44.9097 117.987 43.5976V49.8709C117.987 50.773 118.18 51.3353 118.567 51.5579C118.965 51.7804 119.961 51.8917 121.554 51.8917V53.8247H111.731V51.8917C112.739 51.8917 113.371 51.7863 113.629 51.5754C113.887 51.3763 114.045 51.1596 114.103 50.9253C114.162 50.691 114.191 50.3981 114.191 50.0466V31.7714C114.191 30.9279 114.115 30.3773 113.963 30.1196C113.822 29.8618 113.424 29.733 112.768 29.733H111.52V27.8C112.68 27.8 113.588 27.718 114.244 27.554C114.9 27.3783 115.369 27.2553 115.65 27.185C115.931 27.103 116.23 27.062 116.546 27.062C117.167 27.062 117.571 27.2436 117.758 27.6067C117.958 27.9582 118.057 28.5263 118.057 29.3112V29.364C119.369 27.8176 121.156 27.0444 123.417 27.0444C125.689 27.0444 127.523 27.8117 128.917 29.3464C130.311 30.8693 131.008 33.0834 131.008 35.9887C131.008 38.894 130.282 41.2195 128.829 42.965C127.388 44.6988 125.414 45.5657 122.907 45.5657ZM117.899 36.4983C117.899 38.6539 118.315 40.3525 119.147 41.5943C119.978 42.8361 121.091 43.457 122.485 43.457C123.868 43.457 124.951 42.8244 125.736 41.5592C126.521 40.2823 126.914 38.5836 126.914 36.4632C126.914 33.0776 126.094 30.84 124.454 29.7506C123.868 29.3522 123.177 29.1531 122.38 29.1531C121.583 29.1531 120.91 29.3405 120.359 29.7154C119.809 30.0903 119.352 30.6057 118.989 31.2618C118.262 32.5973 117.899 34.3428 117.899 36.4983Z" fill="white"/>
<path d="M133.784 43.2813C134.804 43.2813 135.501 43.1407 135.876 42.8595C136.262 42.5784 136.455 42.0922 136.455 41.401V22.3702C136.455 21.5267 136.379 20.9761 136.227 20.7184C136.086 20.4606 135.688 20.3318 135.032 20.3318H133.609V18.3988C134.792 18.3988 135.717 18.3168 136.385 18.1528C137.053 17.9771 137.527 17.8541 137.809 17.7838C138.101 17.7018 138.406 17.6608 138.722 17.6608C139.331 17.6608 139.736 17.8365 139.935 18.1879C140.146 18.5394 140.251 19.1134 140.251 19.91V41.401C140.251 42.1274 140.403 42.6252 140.708 42.8947C141.024 43.1524 141.751 43.2813 142.887 43.2813V45.2142H133.784V43.2813Z" fill="white"/>
<path d="M160.934 41.0144C160.934 42.4085 161.209 43.1056 161.76 43.1056C162.287 43.1056 162.673 42.9298 162.919 42.5784C163.165 42.2152 163.288 41.565 163.288 40.6279H165.134C165.145 40.7801 165.151 41.0203 165.151 41.3483C165.151 42.4027 164.888 43.3164 164.36 44.0896C163.716 45.0737 162.691 45.5657 161.285 45.5657C160.371 45.5657 159.592 45.308 158.948 44.7925C158.304 44.277 157.859 43.5976 157.613 42.7541C155.914 44.6285 153.764 45.5657 151.164 45.5657C149.734 45.5657 148.487 45.1498 147.421 44.318C146.366 43.4746 145.839 42.3031 145.839 40.8036C145.839 38.2029 147.76 36.2816 151.603 35.0398C154.04 34.2667 155.498 33.7336 155.978 33.4408C156.459 33.1362 156.769 32.8316 156.91 32.527C157.062 32.2107 157.138 31.8592 157.138 31.4726C157.138 30.7815 156.798 30.2074 156.119 29.7506C155.439 29.282 154.555 29.0477 153.465 29.0477C152.376 29.0477 151.415 29.3405 150.584 29.9263C151.169 30.3597 151.462 30.9162 151.462 31.5957C151.462 32.2751 151.234 32.8199 150.777 33.2299C150.332 33.6399 149.787 33.8449 149.143 33.8449C148.51 33.8449 147.983 33.6516 147.561 33.265C147.151 32.8784 146.946 32.3396 146.946 31.6484C146.946 30.2777 147.637 29.1707 149.02 28.3272C150.402 27.472 152.083 27.0444 154.063 27.0444C157.601 27.0444 159.762 28.1925 160.547 30.4886C160.805 31.2501 160.934 32.1287 160.934 33.1244V41.0144ZM153.184 36.6389C152.153 37.0841 151.38 37.6581 150.865 38.361C150.349 39.0522 150.092 39.8078 150.092 40.6279C150.092 41.4479 150.314 42.0688 150.759 42.4905C151.205 42.9123 151.761 43.1231 152.429 43.1231C153.788 43.1231 154.912 42.6487 155.803 41.6998C156.693 40.7391 157.138 39.4036 157.138 37.6933V34.9871C156.388 35.3737 155.592 35.7252 154.748 36.0415C153.917 36.3578 153.395 36.5569 153.184 36.6389Z" fill="white"/>
<path d="M166.188 43.2813C167.195 43.2813 167.828 43.1817 168.086 42.9825C168.343 42.7717 168.496 42.5491 168.543 42.3148C168.601 42.0805 168.63 41.7876 168.63 41.4362V31.7538C168.63 30.9103 168.554 30.3597 168.402 30.102C168.261 29.8443 167.869 29.7154 167.225 29.7154H166.153V27.7824C167.266 27.7824 168.127 27.7004 168.736 27.5364C169.357 27.3607 169.796 27.2377 170.054 27.1674C170.323 27.0854 170.61 27.0444 170.915 27.0444C171.512 27.0444 171.911 27.2201 172.11 27.5716C172.321 27.923 172.426 28.4971 172.426 29.2937V29.6451C173.434 28.4619 174.576 27.6653 175.853 27.2553C176.31 27.1147 176.766 27.0444 177.223 27.0444C178.102 27.0444 178.781 27.2963 179.262 27.8C179.754 28.3038 180 28.9247 180 29.6627C180 30.4007 179.765 31.0041 179.297 31.4726C178.828 31.9412 178.26 32.1755 177.592 32.1755C176.936 32.1755 176.392 31.9412 175.958 31.4726C175.536 31.0041 175.349 30.4183 175.396 29.7154C174.915 29.7857 174.4 30.0083 173.849 30.3832C173.311 30.7463 172.836 31.2442 172.426 31.8768V41.278C172.426 41.7232 172.461 42.0805 172.532 42.3499C172.614 42.6077 172.819 42.8303 173.147 43.0177C173.486 43.1934 174.494 43.2813 176.169 43.2813V45.2142H166.188V43.2813Z" fill="white"/>
</svg>
