<svg width="260" height="60" viewBox="0 0 260 60" fill="none" xmlns="http://www.w3.org/2000/svg">
<rect width="260" height="60" rx="30" fill="#0ECB78"/>
<path d="M35.736 36.16C34.5947 36.16 33.5653 35.9147 32.648 35.424C31.7307 34.9227 31.0107 34.2347 30.488 33.36C29.9653 32.4747 29.704 31.488 29.704 30.4C29.704 29.312 29.9653 28.3307 30.488 27.456C31.0107 26.5707 31.7307 25.8827 32.648 25.392C33.5653 24.8907 34.5947 24.64 35.736 24.64C36.8773 24.64 37.9067 24.8907 38.824 25.392C39.7413 25.8827 40.4613 26.5653 40.984 27.44C41.5067 28.3147 41.768 29.3013 41.768 30.4C41.768 31.4987 41.5067 32.4853 40.984 33.36C40.4613 34.2347 39.7413 34.9227 38.824 35.424C37.9067 35.9147 36.8773 36.16 35.736 36.16ZM35.736 34.336C36.4827 34.336 37.1547 34.1707 37.752 33.84C38.3493 33.4987 38.8187 33.0293 39.16 32.432C39.5013 31.824 39.672 31.1467 39.672 30.4C39.672 29.6533 39.5013 28.9813 39.16 28.384C38.8187 27.776 38.3493 27.3067 37.752 26.976C37.1547 26.6347 36.4827 26.464 35.736 26.464C34.9893 26.464 34.3173 26.6347 33.72 26.976C33.1227 27.3067 32.6533 27.776 32.312 28.384C31.9707 28.9813 31.8 29.6533 31.8 30.4C31.8 31.1467 31.9707 31.824 32.312 32.432C32.6533 33.0293 33.1227 33.4987 33.72 33.84C34.3173 34.1707 34.9893 34.336 35.736 34.336ZM48.5808 24.8C49.5514 24.8 50.3941 24.96 51.1088 25.28C51.8341 25.6 52.3888 26.0587 52.7728 26.656C53.1568 27.2533 53.3488 27.9627 53.3488 28.784C53.3488 29.5947 53.1568 30.304 52.7728 30.912C52.3888 31.5093 51.8341 31.968 51.1088 32.288C50.3941 32.608 49.5514 32.768 48.5808 32.768H46.0528V36H43.9728V24.8H48.5808ZM48.4848 31.008C49.3914 31.008 50.0794 30.816 50.5487 30.432C51.0181 30.048 51.2528 29.4987 51.2528 28.784C51.2528 28.0693 51.0181 27.52 50.5487 27.136C50.0794 26.752 49.3914 26.56 48.4848 26.56H46.0528V31.008H48.4848ZM63.8259 34.256V36H55.4259V24.8H63.6019V26.544H57.5059V29.456H62.9139V31.168H57.5059V34.256H63.8259ZM76.0966 24.8V36H74.3846L68.2086 28.416V36H66.1446V24.8H67.8566L74.0326 32.384V24.8H76.0966ZM90.7836 33.408H85.1836L84.0796 36H81.9356L86.9756 24.8H89.0236L94.0796 36H91.9036L90.7836 33.408ZM90.0956 31.776L87.9836 26.88L85.8876 31.776H90.0956ZM102.006 26.544V29.952H107.414V31.712H102.006V36H99.9259V24.8H108.102V26.544H102.006ZM117.441 36L115.153 32.72C115.057 32.7307 114.913 32.736 114.721 32.736H112.193V36H110.113V24.8H114.721C115.692 24.8 116.535 24.96 117.249 25.28C117.975 25.6 118.529 26.0587 118.913 26.656C119.297 27.2533 119.489 27.9627 119.489 28.784C119.489 29.6267 119.281 30.352 118.865 30.96C118.46 31.568 117.873 32.0213 117.105 32.32L119.681 36H117.441ZM117.393 28.784C117.393 28.0693 117.159 27.52 116.689 27.136C116.22 26.752 115.532 26.56 114.625 26.56H112.193V31.024H114.625C115.532 31.024 116.22 30.832 116.689 30.448C117.159 30.0533 117.393 29.4987 117.393 28.784ZM130.217 34.256V36H121.817V24.8H129.993V26.544H123.897V29.456H129.305V31.168H123.897V34.256H130.217ZM140.935 34.256V36H132.535V24.8H140.711V26.544H134.615V29.456H140.023V31.168H134.615V34.256H140.935ZM154.94 33.408H149.34L148.236 36H146.092L151.132 24.8H153.18L158.236 36H156.06L154.94 33.408ZM154.252 31.776L152.14 26.88L150.044 31.776H154.252ZM164.688 36.16C163.557 36.16 162.533 35.9147 161.616 35.424C160.709 34.9227 159.995 34.2347 159.472 33.36C158.96 32.4853 158.704 31.4987 158.704 30.4C158.704 29.3013 158.965 28.3147 159.488 27.44C160.011 26.5653 160.725 25.8827 161.632 25.392C162.549 24.8907 163.573 24.64 164.704 24.64C165.621 24.64 166.459 24.8 167.216 25.12C167.973 25.44 168.613 25.904 169.136 26.512L167.792 27.776C166.981 26.9013 165.984 26.464 164.8 26.464C164.032 26.464 163.344 26.6347 162.736 26.976C162.128 27.3067 161.653 27.7707 161.312 28.368C160.971 28.9653 160.8 29.6427 160.8 30.4C160.8 31.1573 160.971 31.8347 161.312 32.432C161.653 33.0293 162.128 33.4987 162.736 33.84C163.344 34.1707 164.032 34.336 164.8 34.336C165.984 34.336 166.981 33.8933 167.792 33.008L169.136 34.288C168.613 34.896 167.968 35.36 167.2 35.68C166.443 36 165.605 36.16 164.688 36.16ZM176.079 36.16C174.948 36.16 173.924 35.9147 173.007 35.424C172.1 34.9227 171.385 34.2347 170.863 33.36C170.351 32.4853 170.095 31.4987 170.095 30.4C170.095 29.3013 170.356 28.3147 170.879 27.44C171.401 26.5653 172.116 25.8827 173.023 25.392C173.94 24.8907 174.964 24.64 176.095 24.64C177.012 24.64 177.849 24.8 178.607 25.12C179.364 25.44 180.004 25.904 180.527 26.512L179.183 27.776C178.372 26.9013 177.375 26.464 176.191 26.464C175.423 26.464 174.735 26.6347 174.127 26.976C173.519 27.3067 173.044 27.7707 172.703 28.368C172.361 28.9653 172.191 29.6427 172.191 30.4C172.191 31.1573 172.361 31.8347 172.703 32.432C173.044 33.0293 173.519 33.4987 174.127 33.84C174.735 34.1707 175.423 34.336 176.191 34.336C177.375 34.336 178.372 33.8933 179.183 33.008L180.527 34.288C180.004 34.896 179.359 35.36 178.591 35.68C177.833 36 176.996 36.16 176.079 36.16ZM187.517 36.16C186.376 36.16 185.347 35.9147 184.429 35.424C183.512 34.9227 182.792 34.2347 182.269 33.36C181.747 32.4747 181.485 31.488 181.485 30.4C181.485 29.312 181.747 28.3307 182.269 27.456C182.792 26.5707 183.512 25.8827 184.429 25.392C185.347 24.8907 186.376 24.64 187.517 24.64C188.659 24.64 189.688 24.8907 190.605 25.392C191.523 25.8827 192.243 26.5653 192.765 27.44C193.288 28.3147 193.549 29.3013 193.549 30.4C193.549 31.4987 193.288 32.4853 192.765 33.36C192.243 34.2347 191.523 34.9227 190.605 35.424C189.688 35.9147 188.659 36.16 187.517 36.16ZM187.517 34.336C188.264 34.336 188.936 34.1707 189.533 33.84C190.131 33.4987 190.6 33.0293 190.941 32.432C191.283 31.824 191.453 31.1467 191.453 30.4C191.453 29.6533 191.283 28.9813 190.941 28.384C190.6 27.776 190.131 27.3067 189.533 26.976C188.936 26.6347 188.264 26.464 187.517 26.464C186.771 26.464 186.099 26.6347 185.501 26.976C184.904 27.3067 184.435 27.776 184.093 28.384C183.752 28.9813 183.581 29.6533 183.581 30.4C183.581 31.1467 183.752 31.824 184.093 32.432C184.435 33.0293 184.904 33.4987 185.501 33.84C186.099 34.1707 186.771 34.336 187.517 34.336ZM200.57 36.16C199.023 36.16 197.818 35.728 196.954 34.864C196.09 33.9893 195.658 32.7413 195.658 31.12V24.8H197.738V31.04C197.738 33.2373 198.687 34.336 200.586 34.336C202.474 34.336 203.418 33.2373 203.418 31.04V24.8H205.466V31.12C205.466 32.7413 205.034 33.9893 204.17 34.864C203.317 35.728 202.117 36.16 200.57 36.16ZM218.331 24.8V36H216.619L210.443 28.416V36H208.379V24.8H210.091L216.267 32.384V24.8H218.331ZM223.604 26.56H219.892V24.8H229.396V26.56H225.684V36H223.604V26.56Z" fill="white"/>
</svg>
