<svg width="271" height="79" viewBox="0 0 271 79" fill="none" xmlns="http://www.w3.org/2000/svg">
<path d="M270.553 24.5386C270.444 23.6473 269.994 22.852 269.286 22.2993L247.832 5.55051C246.373 4.41213 244.257 4.67071 243.114 6.1275L222.33 32.6252L208.539 41.8584C208.538 41.8585 208.538 41.8588 208.538 41.8589L204.731 44.4077L202.072 46.1877C202.025 46.219 201.98 46.2513 201.935 46.2847C201.262 46.7841 200.806 47.5051 200.643 48.3318C200.469 49.2116 200.649 50.1059 201.148 50.85L201.15 50.8526C201.15 50.8528 201.15 50.8529 201.15 50.853L204.37 55.6509L205.485 57.313L211.982 66.9935C211.982 66.9935 211.982 66.9936 211.982 66.9938L213.059 68.5998L216.307 73.4393C216.954 74.4039 218.02 74.9255 219.103 74.9255C219.747 74.9255 220.396 74.7418 220.97 74.3579L220.972 74.3566C220.972 74.3563 220.973 74.3562 220.973 74.356L227.285 70.1298L230.074 72.3065C230.687 72.7847 231.415 73.0164 232.139 73.0164C233.138 73.0164 234.129 72.5744 234.792 71.7295L245.735 57.7774L261.69 47.0955C261.711 47.0835 261.733 47.0735 261.753 47.0599L268.219 42.731C268.967 42.2304 269.474 41.4689 269.648 40.5871C269.822 39.7073 269.642 38.813 269.143 38.0688L269.139 38.0636C269.139 38.0629 269.139 38.0621 269.138 38.0614L265.478 32.6077L269.861 27.0199C270.416 26.3119 270.662 25.4308 270.553 24.5386ZM209.625 50.0999C209.222 52.1424 208.156 53.9454 206.587 55.2698L203.326 50.4102L202.855 49.7084C202.661 49.4188 202.591 49.0707 202.658 48.7284C202.717 48.428 202.876 48.1637 203.11 47.9716C203.143 47.9442 203.178 47.9182 203.215 47.8939L205.057 46.6602L208.781 44.1674C209.728 45.9873 210.028 48.0584 209.625 50.0999ZM219.829 72.6506C219.227 73.0516 218.413 72.8921 218.012 72.2946L217.967 72.2277L214.291 66.7504C218.048 64.8028 222.685 65.7047 225.411 68.9128L219.829 72.6506ZM233.176 70.4619C232.73 71.0299 231.905 71.1313 231.337 70.6876L229.082 68.9268L240.239 61.4567L233.176 70.4619ZM260.666 38.8186C261.069 36.776 262.135 34.9729 263.704 33.6485L267.434 39.2076C267.627 39.4969 267.697 39.844 267.629 40.1856C267.562 40.5289 267.364 40.8253 267.073 41.0202L261.508 44.7462C260.562 42.9276 260.263 40.8582 260.666 38.8186ZM268.245 25.7524L264.275 30.8145L253.981 15.4751C252.949 13.9378 250.857 13.5257 249.318 14.5564L240.221 20.6464C239.118 21.385 240.261 23.0907 241.364 22.3527L243.161 21.1494C245.326 23.8127 248.54 25.2417 251.81 25.2417C253.629 25.2417 255.465 24.7977 257.148 23.8804L262.554 31.9361C260.534 33.5723 259.16 35.8398 258.651 38.4208C258.142 40.9987 258.549 43.6148 259.794 45.8934L244.448 56.1673C244.446 56.1684 244.445 56.1693 244.443 56.1704L227.125 67.7654C223.755 63.6246 217.849 62.4726 213.142 65.0382L207.736 56.982C209.757 55.3459 211.13 53.0783 211.639 50.4974C212.149 47.9177 211.741 45.2998 210.494 43.02L236.594 25.5457C237.697 24.807 236.555 23.101 235.452 23.8393L227.825 28.9454L244.73 7.39483C245.175 6.82701 246 6.72544 246.568 7.16924L268.023 23.9179C268.298 24.1326 268.472 24.4413 268.515 24.7874C268.557 25.1342 268.461 25.4768 268.245 25.7524ZM250.46 16.2692C251.062 15.8666 251.877 16.0259 252.279 16.624L254.16 19.4264L255.999 22.1682C252.243 24.1157 247.606 23.2139 244.879 20.0057L250.46 16.2692Z" fill="#133249"/>
<path d="M227.633 33.264C224.64 35.2682 222.607 38.317 221.91 41.8491C221.213 45.3795 221.934 48.97 223.94 51.959C225.953 54.9586 229.016 56.9912 232.564 57.6822C233.827 57.9278 234.238 55.9163 232.957 55.6666C229.948 55.0808 227.352 53.3577 225.645 50.8147C223.945 48.2814 223.334 45.2385 223.925 42.2464C224.516 39.2531 226.238 36.6688 228.776 34.97C234.013 31.4635 241.131 32.8673 244.642 38.0991C246.342 40.6325 246.953 43.6754 246.362 46.6675C245.771 49.6608 244.049 52.2449 241.511 53.9436C240.513 54.6122 239.426 55.1166 238.282 55.4428C237.005 55.8067 237.568 57.7812 238.845 57.4175C240.195 57.0324 241.477 56.4377 242.654 55.6498C245.647 53.6456 247.679 50.5969 248.377 47.065C249.074 43.5345 248.353 39.944 246.347 36.9548C242.205 30.7842 233.811 29.1282 227.633 33.264Z" fill="#133249"/>
<path d="M250.78 35.0161C250.976 35.0161 251.174 34.9598 251.35 34.8423L256.183 31.6065C256.654 31.291 256.78 30.6534 256.465 30.1822C256.149 29.711 255.512 29.5849 255.041 29.9002L250.207 33.136C249.736 33.4515 249.61 34.0892 249.925 34.5603C250.123 34.8563 250.448 35.0161 250.78 35.0161Z" fill="#133249"/>
<path d="M218.937 54.0718L214.104 57.3076C213.633 57.623 213.507 58.2606 213.822 58.7318C214.02 59.0276 214.345 59.1875 214.676 59.1875C214.872 59.1875 215.071 59.1312 215.246 59.0138L220.079 55.778C220.55 55.4626 220.677 54.8249 220.361 54.3537C220.046 53.8826 219.408 53.7562 218.937 54.0718Z" fill="#133249"/>
<path d="M238.791 51.8824C239.565 53.0358 241.213 51.8066 240.496 50.7383L239.942 49.9141C241.423 48.3884 241.471 46.2777 240.797 44.7848C239.685 42.3205 237.399 42.117 235.077 42.6643L232.748 39.1935C233.333 39.0035 233.789 39.053 233.834 39.0585C235.141 39.247 235.443 37.2295 234.137 37.0277C234.066 37.0169 232.902 36.8516 231.578 37.4495L231.126 36.7764C230.386 35.6743 228.681 36.8183 229.421 37.9205L229.914 38.6548C228.847 39.7991 228.538 41.4801 229.157 42.927C230.064 45.0473 232.096 45.2993 234.14 44.952L237.137 49.4184C236.543 49.741 236.065 49.8415 235.168 49.8523C233.871 49.8681 233.925 51.9254 235.193 51.9055C236.592 51.8886 237.4 51.6391 238.284 51.1283L238.791 51.8824ZM232.122 43.0521C231.697 43.0208 231.274 42.6547 231.045 42.1195C230.849 41.6604 230.78 41.0048 231.113 40.4418L232.86 43.0452C232.597 43.0643 232.348 43.0687 232.122 43.0521ZM236.368 44.4605C238.057 44.0274 238.753 45.2455 238.926 45.6292C239.251 46.349 239.275 47.3259 238.745 48.1298L236.295 44.4788C236.319 44.4725 236.343 44.4669 236.368 44.4605Z" fill="#133249"/>
<mask id="path-6-inside-1_2214_229" fill="white">
<path d="M59.2327 54.0166C60.9866 55.3598 61.3373 57.8954 59.7587 59.4408C56.4853 62.6456 52.4618 65.0158 48.0278 66.3185C42.3082 67.9988 36.2024 67.8155 30.5939 65.7953C24.9854 63.7751 20.1652 60.0226 16.8309 55.081C13.4967 50.1394 11.8213 44.2651 12.0473 38.3081C12.2733 32.3511 14.3889 26.6206 18.088 21.9458C21.7871 17.271 26.8777 13.8946 32.6231 12.3051C38.3686 10.7156 44.4708 10.9955 50.0466 13.1043C54.3691 14.7392 58.2015 17.4074 61.2227 20.8509C62.6796 22.5116 62.1379 25.0133 60.2872 26.2197L44.8487 36.2845C42.5364 37.7919 42.4097 41.1328 44.6011 42.811L59.2327 54.0166Z"/>
</mask>
<path d="M59.2327 54.0166C60.9866 55.3598 61.3373 57.8954 59.7587 59.4408C56.4853 62.6456 52.4618 65.0158 48.0278 66.3185C42.3082 67.9988 36.2024 67.8155 30.5939 65.7953C24.9854 63.7751 20.1652 60.0226 16.8309 55.081C13.4967 50.1394 11.8213 44.2651 12.0473 38.3081C12.2733 32.3511 14.3889 26.6206 18.088 21.9458C21.7871 17.271 26.8777 13.8946 32.6231 12.3051C38.3686 10.7156 44.4708 10.9955 50.0466 13.1043C54.3691 14.7392 58.2015 17.4074 61.2227 20.8509C62.6796 22.5116 62.1379 25.0133 60.2872 26.2197L44.8487 36.2845C42.5364 37.7919 42.4097 41.1328 44.6011 42.811L59.2327 54.0166Z" stroke="#133249" stroke-width="4" mask="url(#path-6-inside-1_2214_229)"/>
<circle cx="139.565" cy="39.3938" r="2.55308" transform="rotate(90 139.565 39.3938)" fill="#0DA864"/>
<circle cx="153.75" cy="39.3938" r="2.55308" transform="rotate(90 153.75 39.3938)" fill="#0DA864"/>
<circle cx="167.932" cy="39.3938" r="2.55308" transform="rotate(90 167.932 39.3938)" fill="#0DA864"/>
<circle cx="101.553" cy="39.3938" r="2.55308" transform="rotate(90 101.553 39.3938)" fill="#0DA864"/>
<circle cx="114.034" cy="39.3938" r="2.55308" transform="rotate(90 114.034 39.3938)" fill="#0DA864"/>
<circle cx="127.084" cy="39.3938" r="2.55308" transform="rotate(90 127.084 39.3938)" fill="#0DA864"/>
</svg>
