<svg width="71" height="71" viewBox="0 0 71 71" fill="none" xmlns="http://www.w3.org/2000/svg">
<path d="M70.5529 20.5386C70.4442 19.6473 69.9943 18.852 69.2864 18.2993L47.8315 1.55051C46.3732 0.412128 44.2567 0.670714 43.1138 2.1275L22.3296 28.6252L8.53861 37.8584C8.53834 37.8585 8.53806 37.8588 8.53765 37.8589L4.73087 40.4077L2.07232 42.1877C2.0255 42.219 1.97964 42.2513 1.93488 42.2847C1.26234 42.7841 0.805805 43.5051 0.642632 44.3318C0.469055 45.2116 0.648518 46.1059 1.14789 46.85L1.14967 46.8526C1.14967 46.8528 1.14981 46.8529 1.14995 46.853L4.36975 51.6509L5.48513 53.313L11.9815 62.9935C11.9815 62.9935 11.9817 62.9936 11.9817 62.9938L13.0594 64.5998L16.3071 69.4393C16.9545 70.4039 18.0195 70.9255 19.1034 70.9255C19.7465 70.9255 20.3965 70.7418 20.9699 70.3579L20.972 70.3566C20.9722 70.3563 20.9726 70.3562 20.9729 70.356L27.2853 66.1298L30.0738 68.3065C30.6865 68.7847 31.4151 69.0164 32.1388 69.0164C33.1384 69.0164 34.1288 68.5744 34.7916 67.7295L45.7354 53.7774L61.6903 43.0955C61.7112 43.0835 61.7329 43.0735 61.7533 43.0599L68.2187 38.731C68.9666 38.2304 69.4743 37.4689 69.6483 36.5871C69.8219 35.7073 69.6424 34.813 69.143 34.0688L69.1395 34.0636C69.1389 34.0629 69.1385 34.0621 69.1381 34.0614L65.4782 28.6077L69.8612 23.0199C70.416 22.3119 70.6618 21.4308 70.5529 20.5386ZM9.62511 46.0999C9.22197 48.1424 8.156 49.9454 6.58696 51.2698L3.32568 46.4102L2.85478 45.7084C2.66053 45.4188 2.59058 45.0707 2.65821 44.7284C2.71748 44.428 2.87614 44.1637 3.10981 43.9716C3.14321 43.9442 3.17825 43.9182 3.21467 43.8939L5.05735 42.6602L8.78077 40.1674C9.72778 41.9873 10.028 44.0584 9.62511 46.0999ZM19.8285 68.6506C19.2273 69.0516 18.4129 68.8921 18.012 68.2946L17.9671 68.2277L14.2914 62.7504C18.0478 60.8028 22.685 61.7047 25.4115 64.9128L19.8285 68.6506ZM33.1757 66.4619C32.7302 67.0299 31.9054 67.1313 31.3372 66.6876L29.0816 64.9268L40.2393 57.4567L33.1757 66.4619ZM60.6655 34.8186C61.0687 32.776 62.1346 30.9729 63.7037 29.6485L67.4342 35.2076C67.6274 35.4969 67.6968 35.844 67.6293 36.1856C67.5615 36.5289 67.364 36.8253 67.0728 37.0202L61.5075 40.7462C60.5625 38.9276 60.2631 36.8582 60.6655 34.8186ZM68.2452 21.7524L64.2745 26.8145L53.9806 11.4751C52.949 9.93779 50.8572 9.52575 49.3177 10.5564L40.2214 16.6464C39.1183 17.385 40.2605 19.0907 41.3638 18.3527L43.1609 17.1494C45.3259 19.8127 48.5398 21.2417 51.8101 21.2417C53.6294 21.2417 55.4653 20.7977 57.1484 19.8804L62.5545 27.9361C60.5337 29.5723 59.1604 31.8398 58.6509 34.4208C58.142 36.9987 58.5491 39.6148 59.7935 41.8934L44.448 52.1673C44.4465 52.1684 44.4448 52.1693 44.4433 52.1704L27.1246 63.7654C23.7549 59.6246 17.8491 58.4726 13.1421 61.0382L7.73575 52.982C9.75653 51.3459 11.1298 49.0783 11.6393 46.4974C12.1485 43.9177 11.7406 41.2998 10.494 39.02L36.5943 21.5457C37.6972 20.807 36.5549 19.101 35.4518 19.8393L27.8252 24.9454L44.7296 3.39483C45.175 2.82701 45.9996 2.72544 46.5681 3.16924L68.0229 19.9179C68.2979 20.1326 68.4724 20.4413 68.5147 20.7874C68.557 21.1342 68.4613 21.4768 68.2452 21.7524ZM50.4602 12.2692C51.062 11.8666 51.8774 12.0259 52.2788 12.624L54.1595 15.4264L55.9995 18.1682C52.2429 20.1157 47.6058 19.2139 44.8795 16.0057L50.4602 12.2692Z" fill="#133249"/>
<path d="M27.6334 29.264C24.64 31.2682 22.6075 34.317 21.9103 37.8491C21.2134 41.3795 21.9344 44.97 23.9404 47.959C25.9533 50.9586 29.0161 52.9912 32.5645 53.6822C33.8269 53.9278 34.2381 51.9163 32.9569 51.6666C29.9485 51.0808 27.3519 49.3577 25.6453 46.8147C23.9452 44.2814 23.3341 41.2385 23.9248 38.2464C24.5156 35.2531 26.2383 32.6688 28.7759 30.97C34.0133 27.4635 41.1308 28.8673 44.6418 34.0991C46.3419 36.6325 46.9529 39.6754 46.3623 42.6675C45.7714 45.6608 44.0486 48.2449 41.5112 49.9436C40.5126 50.6122 39.4262 51.1166 38.282 51.4428C37.0053 51.8067 37.5684 53.7812 38.845 53.4175C40.1953 53.0324 41.4767 52.4377 42.6536 51.6498C45.6469 49.6456 47.6795 46.5969 48.3767 43.065C49.0736 39.5345 48.3526 35.944 46.3466 32.9548C42.2054 26.7842 33.811 25.1282 27.6334 29.264Z" fill="#133249"/>
<path d="M50.7795 31.0161C50.976 31.0161 51.1745 30.9598 51.3498 30.8423L56.183 27.6065C56.6541 27.291 56.7803 26.6534 56.465 26.1822C56.1495 25.711 55.5117 25.5849 55.0407 25.9002L50.2075 29.136C49.7364 29.4515 49.6102 30.0892 49.9255 30.5603C50.1234 30.8563 50.4484 31.0161 50.7795 31.0161Z" fill="#133249"/>
<path d="M18.937 50.0718L14.104 53.3076C13.6329 53.623 13.5067 54.2606 13.822 54.7318C14.02 55.0276 14.3449 55.1875 14.676 55.1875C14.8725 55.1875 15.071 55.1312 15.2463 55.0138L20.0794 51.778C20.5504 51.4626 20.6766 50.8249 20.3614 50.3537C20.0457 49.8826 19.4082 49.7562 18.937 50.0718Z" fill="#133249"/>
<path d="M38.7906 47.8824C39.5646 49.0358 41.2126 47.8066 40.4956 46.7383L39.9424 45.9141C41.4227 44.3884 41.4709 42.2777 40.7974 40.7848C39.6855 38.3205 37.3988 38.117 35.0773 38.6643L32.7481 35.1935C33.3332 35.0035 33.7892 35.053 33.8342 35.0585C35.1412 35.247 35.4432 33.2295 34.1373 33.0277C34.0662 33.0169 32.9021 32.8516 31.5777 33.4495L31.126 32.7764C30.3861 31.6743 28.6811 32.8183 29.421 33.9205L29.9137 34.6548C28.8469 35.7991 28.5382 37.4801 29.1572 38.927C30.0641 41.0473 32.0964 41.2993 34.1396 40.952L37.1368 45.4184C36.5429 45.741 36.065 45.8415 35.1681 45.8523C33.8709 45.8681 33.9251 47.9254 35.193 47.9055C36.592 47.8886 37.3999 47.6391 38.2844 47.1283L38.7906 47.8824ZM32.1224 39.0521C31.6969 39.0208 31.2741 38.6547 31.0452 38.1195C30.8488 37.6604 30.7803 37.0048 31.1131 36.4418L32.8602 39.0452C32.597 39.0643 32.3483 39.0687 32.1224 39.0521ZM36.3675 40.4605C38.0573 40.0274 38.7525 41.2455 38.9257 41.6292C39.2506 42.349 39.2748 43.3259 38.7452 44.1298L36.2951 40.4788C36.3195 40.4725 36.3427 40.4669 36.3675 40.4605Z" fill="#133249"/>
</svg>
